name: Times Regular 30
spacing: proportional
bounding-box: 29x30
encoding: latin-1
default-char: "default"
converter: monobit v0.48
source-name: times.font
source-path: /home/mkrueger/work/BBS/Skypix/FontCollection/Fonts/times.font
source-format: amiga-fc
shift-up: -7

0x20:
' ':
    -

    right-bearing: 8


0x21:
'!':
    ....
    .@@.
    .@@.
    @@@@
    @@@@
    @@@@
    @@@@
    @@@@
    @@@@
    @@@@
    @@@@
    .@@.
    .@@.
    .@@.
    .@@.
    ..@.
    ..@.
    ....
    ....
    ....
    ....
    .@@.
    .@@.
    ....
    ....
    ....
    ....
    ....
    ....
    ....

    left-bearing: 4
    right-bearing: -2


0x22:
'"':
    ........
    .@....@.
    @@@..@@@
    @@@..@@@
    @@@..@@@
    @@...@@.
    @....@..
    ........
    ........
    ........
    ........
    ........
    ........
    ........
    ........
    ........
    ........
    ........
    ........
    ........
    ........
    ........
    ........
    ........
    ........
    ........
    ........
    ........
    ........
    ........

    left-bearing: 2
    right-bearing: 1


0x23:
'#':
    ..............
    .....@....@...
    .....@....@...
    .....@....@...
    .....@....@...
    .....@....@...
    .....@....@...
    .....@....@...
    .@@@@@@@@@@@@@
    .@@@@@@@@@@@@@
    ....@....@....
    ....@....@....
    ....@....@....
    ....@....@....
    @@@@@@@@@@@@@.
    @@@@@@@@@@@@@.
    ...@....@.....
    ...@....@.....
    ...@....@.....
    ...@....@.....
    ...@....@.....
    ...@....@.....
    ...@....@.....
    ..............
    ..............
    ..............
    ..............
    ..............
    ..............
    ..............

    left-bearing: 1


0x24:
'$':
    ......@@......
    ...@@@@@@@@...
    ..@@..@@.@@@@@
    .@@...@@...@@@
    .@@...@@....@@
    .@@...@@.....@
    .@@...@@......
    .@@@..@@......
    ..@@@.@@......
    ...@@@@@......
    ....@@@@@.....
    ......@@@@@...
    ......@@@@@@..
    ......@@.@@@@.
    ......@@..@@@.
    ......@@...@@@
    ......@@....@@
    ......@@....@@
    @.....@@....@@
    @@....@@...@@.
    @@@...@@...@@.
    @@@@@.@@.@@@..
    ...@@@@@@@....
    ......@@......
    ..............
    ..............
    ..............
    ..............
    ..............
    ..............

    right-bearing: 1


0x25:
'%':
    .....................
    .....................
    .....................
    ....@@@@@.......@@...
    ..@@....@@@@@@@@@@...
    .@@......@.....@@....
    @@.......@....@@.....
    @@.......@....@@.....
    @@.......@...@@......
    @@......@...@@.......
    @@@....@....@@.......
    .@@@@@@....@@........
    ..@@@@....@@.........
    ..........@@...@@@@@.
    .........@@..@@....@@
    ........@@..@@......@
    ........@@.@@.......@
    .......@@..@@.......@
    ......@@...@@.......@
    ......@@...@@......@.
    .....@@....@@@....@..
    ....@@......@@@@@@...
    ....@@.......@@@@....
    .....................
    .....................
    .....................
    .....................
    .....................
    .....................
    .....................

    left-bearing: 1
    right-bearing: 1


0x26:
'&':
    ....................
    .......@@@@.........
    .....@@...@@........
    .....@.....@@.......
    ....@@......@.......
    ....@@......@.......
    ....@@.....@@.......
    ....@@....@@........
    .....@@..@@.........
    .....@@.@@...@@@@...
    ......@@@.....@@....
    .....@@@......@.....
    ....@@@@@.....@.....
    ..@@@..@@@....@.....
    .@@@....@@...@......
    .@@.....@@@..@......
    @@.......@@@@.......
    @@........@@@.......
    @@........@@@.......
    @@@......@@@@@.....@
    .@@@....@@..@@@...@.
    ..@@@@@@@....@@@@@..
    ....@@@@......@@@...
    ....................
    ....................
    ....................
    ....................
    ....................
    ....................
    ....................

    left-bearing: 2
    right-bearing: -1


0x27:
''':
    ....
    .@@.
    @@@@
    .@@@
    ...@
    ...@
    ..@.
    .@..
    ....
    ....
    ....
    ....
    ....
    ....
    ....
    ....
    ....
    ....
    ....
    ....
    ....
    ....
    ....
    ....
    ....
    ....
    ....
    ....
    ....
    ....

    left-bearing: 4
    right-bearing: -2


0x28:
'(':
    .......
    .......
    ......@
    .....@.
    ....@..
    ...@@..
    ..@@...
    ..@@...
    .@@....
    .@@....
    @@@....
    @@@....
    @@@....
    @@@....
    @@@....
    @@@....
    @@@....
    @@@....
    @@@....
    @@@....
    @@@....
    .@@....
    .@@....
    ..@@...
    ..@@...
    ...@@..
    ....@..
    .....@.
    ......@
    .......

    left-bearing: 1


0x29:
')':
    .......
    .......
    @......
    .@.....
    ..@....
    ..@@...
    ...@@..
    ...@@..
    ....@@.
    ....@@.
    ....@@@
    ....@@@
    ....@@@
    ....@@@
    ....@@@
    ....@@@
    ....@@@
    ....@@@
    ....@@@
    ....@@@
    ....@@@
    ....@@.
    ....@@.
    ...@@..
    ...@@..
    ..@@...
    ..@....
    .@.....
    @......
    .......

    left-bearing: 1
    right-bearing: 1


0x2a:
'*':
    ...........
    ....@@.....
    ....@@.....
    ....@@.....
    @@@..@..@@@
    @@@@.@.@@@@
    ....@@@....
    ....@@@....
    @@@@.@.@@@@
    @@@..@..@@@
    ....@@.....
    ....@@.....
    ....@@.....
    ...........
    ...........
    ...........
    ...........
    ...........
    ...........
    ...........
    ...........
    ...........
    ...........
    ...........
    ...........
    ...........
    ...........
    ...........
    ...........
    ...........

    left-bearing: 2


0x2b:
'+':
    ............
    ............
    ............
    ............
    ............
    ............
    ............
    ............
    ............
    .....@@.....
    .....@@.....
    .....@@.....
    .....@@.....
    .....@@.....
    @@@@@@@@@@@@
    .....@@.....
    .....@@.....
    .....@@.....
    .....@@.....
    .....@@.....
    .....@@.....
    ............
    ............
    ............
    ............
    ............
    ............
    ............
    ............
    ............

    left-bearing: 1


0x2c:
',':
    ....
    ....
    ....
    ....
    ....
    ....
    ....
    ....
    ....
    ....
    ....
    ....
    ....
    ....
    ....
    ....
    ....
    ....
    ....
    ....
    .@@.
    @@@@
    .@@@
    ...@
    ..@@
    @@@.
    ....
    ....
    ....
    ....

    left-bearing: 3
    right-bearing: -1


0x2d:
'-':
    ..............
    ..............
    ..............
    ..............
    ..............
    ..............
    ..............
    ..............
    ..............
    ..............
    ..............
    @@@@@@@@@@@@@@
    @@@@@@@@@@@@@@
    ..............
    ..............
    ..............
    ..............
    ..............
    ..............
    ..............
    ..............
    ..............
    ..............
    ..............
    ..............
    ..............
    ..............
    ..............
    ..............
    ..............

    left-bearing: 3
    right-bearing: -1


0x2e:
'.':
    ...
    ...
    ...
    ...
    ...
    ...
    ...
    ...
    ...
    ...
    ...
    ...
    ...
    ...
    ...
    ...
    ...
    ...
    ...
    ...
    ...
    @@.
    @@.
    ...
    ...
    ...
    ...
    ...
    ...
    ...

    left-bearing: 3
    right-bearing: -1


0x2f:
'/':
    ........
    .......@
    ......@@
    ......@@
    ......@.
    .....@@.
    .....@@.
    .....@..
    ....@@..
    ....@@..
    ....@...
    ...@@...
    ...@@...
    ...@....
    ..@@....
    ..@@....
    ..@.....
    .@@.....
    .@@.....
    .@......
    @@......
    @@......
    @.......
    ........
    ........
    ........
    ........
    ........
    ........
    ........



0x30:
'0':
    .............
    ....@@@@@....
    ...@@...@@...
    ..@@.....@@..
    ..@.......@..
    .@@.......@@.
    .@@.......@@.
    .@.........@.
    @@.........@@
    @@.........@@
    @@.........@@
    @@.........@@
    @@.........@@
    @@.........@@
    @@.........@@
    @@.........@@
    .@.........@.
    .@@.......@@.
    .@@.......@@.
    ..@.......@..
    ..@@.....@@..
    ...@@...@@...
    ....@@@@@....
    .............
    .............
    .............
    .............
    .............
    .............
    .............

    left-bearing: 1


0x31:
'1':
    ..........
    .....@....
    ....@@....
    ...@@@....
    .@@@@@....
    ....@@....
    ....@@....
    ....@@....
    ....@@....
    ....@@....
    ....@@....
    ....@@....
    ....@@....
    ....@@....
    ....@@....
    ....@@....
    ....@@....
    ....@@....
    ....@@....
    ....@@....
    ....@@....
    ....@@....
    @@@@@@@@@@
    ..........
    ..........
    ..........
    ..........
    ..........
    ..........
    ..........

    left-bearing: 2
    right-bearing: 1


0x32:
'2':
    .............
    ....@@@......
    ..@@@@@@@....
    .@@....@@@...
    .@......@@...
    @........@@..
    @........@@..
    .........@@..
    .........@@..
    .........@@..
    ........@@...
    ........@@...
    ........@@...
    .......@@....
    ......@@.....
    ......@@.....
    .....@@......
    ....@@.......
    ...@@........
    ..@@........@
    .@@........@@
    @@@@@@@@@@@@.
    @@@@@@@@@@@@.
    .............
    .............
    .............
    .............
    .............
    .............
    .............

    left-bearing: 1


0x33:
'3':
    ...........
    ...@@@@....
    ..@@@@@@...
    .@@...@@@..
    .@.....@@..
    @.......@@.
    @.......@@.
    ........@@.
    .......@@..
    ......@@...
    ....@@@@@..
    ......@@@@.
    ........@@.
    .........@@
    .........@@
    .........@@
    .........@@
    .........@@
    ........@@.
    @@......@@.
    @@@....@@..
    .@@@..@@...
    ..@@@@.....
    ...........
    ...........
    ...........
    ...........
    ...........
    ...........
    ...........

    left-bearing: 1
    right-bearing: 2


0x34:
'4':
    .............
    .......@@@...
    .......@@@...
    ......@@@@...
    ......@.@@...
    .....@@.@@...
    .....@..@@...
    ....@@..@@...
    ....@...@@...
    ...@@...@@...
    ...@....@@...
    ..@@....@@...
    ..@.....@@...
    .@@.....@@...
    .@......@@...
    @@......@@...
    @@@@@@@@@@@@@
    @@@@@@@@@@@@@
    ........@@...
    ........@@...
    ........@@...
    ........@@...
    ........@@...
    .............
    .............
    .............
    .............
    .............
    .............
    .............

    left-bearing: 1


0x35:
'5':
    .............
    ...@@@@@@@@@@
    ...@@@@@@@@@.
    ...@.........
    ...@.........
    ..@@.........
    ..@@.........
    ..@@.........
    .@@@@@@......
    .@@@@@@@@....
    ......@@@@...
    ........@@@..
    .........@@@.
    ..........@@.
    ...........@@
    ...........@@
    ...........@@
    ...........@@
    ..........@@.
    @@........@@.
    @@@......@@..
    .@@@....@@...
    ...@@@@@@....
    .............
    .............
    .............
    .............
    .............
    .............
    .............

    left-bearing: 1


0x36:
'6':
    .............
    ........@@@@@
    ......@@@@...
    ....@@@@.....
    ...@@@.......
    ..@@@........
    ..@@.........
    .@@..........
    .@@..........
    .@@.@@@@@....
    @@@@...@@@@..
    @@@......@@@.
    @@........@@.
    @@........@@@
    @@.........@@
    @@.........@@
    @@.........@@
    @@.........@@
    @@@........@@
    .@@.......@@.
    .@@@@....@@@.
    ..@@@@@@@@@..
    ....@@@@@....
    .............
    .............
    .............
    .............
    .............
    .............
    .............

    left-bearing: 1


0x37:
'7':
    .............
    .@@@@@@@@@@@@
    .@@@@@@@@@@@@
    @@@.......@@.
    @@........@@.
    @........@@@.
    .........@@..
    .........@@..
    ........@@@..
    ........@@...
    ........@@...
    .......@@@...
    .......@@....
    .......@@....
    ......@@@....
    ......@@.....
    ......@@.....
    .....@@@.....
    .....@@......
    .....@@......
    ....@@@......
    ....@@.......
    ....@@.......
    .............
    .............
    .............
    .............
    .............
    .............
    .............

    left-bearing: 1


0x38:
'8':
    .............
    ....@@@@@....
    ...@@...@@...
    ...@.....@@..
    ..@@.....@@..
    ..@@.....@@..
    ..@@.....@@..
    ..@@.....@@..
    ...@@...@@...
    ....@@.@@....
    ....@@@@.....
    ...@@@@@@@...
    ..@@....@@@..
    .@@......@@@.
    .@@.......@@.
    @@.........@@
    @@.........@@
    @@.........@@
    @@.........@@
    .@@.......@@.
    .@@.......@@.
    ..@@@...@@@..
    ....@@@@@....
    .............
    .............
    .............
    .............
    .............
    .............
    .............

    left-bearing: 1


0x39:
'9':
    .............
    ....@@@@@....
    ..@@@...@@@..
    .@@@.....@@@.
    .@@.......@@.
    @@.........@@
    @@.........@@
    @@.........@@
    @@.........@@
    @@.........@@
    @@.........@@
    .@@........@@
    .@@@......@@@
    ..@@@@..@@.@@
    ....@@@@@.@@.
    ..........@@.
    .........@@..
    .........@@..
    ........@@...
    .......@@....
    ......@@.....
    ....@@@......
    @@@@@........
    .............
    .............
    .............
    .............
    .............
    .............
    .............

    left-bearing: 1


0x3a:
':':
    ..
    ..
    ..
    ..
    ..
    ..
    ..
    ..
    ..
    @@
    @@
    ..
    ..
    ..
    ..
    ..
    ..
    ..
    ..
    ..
    ..
    @@
    @@
    ..
    ..
    ..
    ..
    ..
    ..
    ..

    left-bearing: 3
    right-bearing: -1


0x3b:
';':
    ....
    ....
    ....
    ....
    ....
    ....
    ....
    ....
    ....
    .@@.
    .@@.
    ....
    ....
    ....
    ....
    ....
    ....
    ....
    ....
    ....
    .@@.
    @@@@
    .@@@
    ...@
    ..@@
    @@@.
    ....
    ....
    ....
    ....

    left-bearing: 3
    right-bearing: -1


0x3c:
'<':
    ..............
    ..............
    ..............
    ..............
    ..............
    ..............
    ..............
    ..............
    ..............
    ............@@
    ..........@@@.
    ........@@@...
    ......@@@.....
    ....@@@.......
    ..@@@.........
    @@@...........
    @@@...........
    ..@@@.........
    ....@@@.......
    ......@@@.....
    ........@@@...
    ..........@@@.
    ............@@
    ..............
    ..............
    ..............
    ..............
    ..............
    ..............
    ..............

    left-bearing: 1


0x3d:
'=':
    ...........
    ...........
    ...........
    ...........
    ...........
    ...........
    ...........
    ...........
    ...........
    ...........
    ...........
    ...........
    ...........
    @@@@@@@@@@@
    ...........
    @@@@@@@@@@@
    ...........
    ...........
    ...........
    ...........
    ...........
    ...........
    ...........
    ...........
    ...........
    ...........
    ...........
    ...........
    ...........
    ...........

    left-bearing: 2
    right-bearing: 1


0x3e:
'>':
    ..............
    ..............
    ..............
    ..............
    ..............
    ..............
    ..............
    ..............
    ..............
    @@............
    .@@@..........
    ...@@@........
    .....@@@......
    .......@@@....
    .........@@@..
    ...........@@@
    ...........@@@
    .........@@@..
    .......@@@....
    .....@@@......
    ...@@@........
    .@@@..........
    @@............
    ..............
    ..............
    ..............
    ..............
    ..............
    ..............
    ..............

    left-bearing: 1


0x3f:
'?':
    ..........
    ..@@@@@...
    .@@...@@..
    @@.....@@.
    @.......@@
    @@......@@
    @@@.....@@
    .@......@@
    .......@@.
    ......@@@.
    .....@@@..
    .....@@...
    ....@@@...
    ....@@....
    ....@@....
    ....@.....
    ....@.....
    ....@.....
    ..........
    ..........
    ..........
    ...@@.....
    ...@@.....
    ..........
    ..........
    ..........
    ..........
    ..........
    ..........
    ..........

    left-bearing: 3
    right-bearing: -2


0x40:
'@':
    .......................
    ........@@@@@@@@.......
    ......@@@@.....@@@.....
    .....@@@.........@@@...
    ....@@@...........@@@..
    ...@@@.............@@..
    ..@@@...............@@.
    ..@@.................@.
    .@@@......@@@@..@@...@@
    .@@......@@@@@@.@@....@
    .@@.....@@....@@@@....@
    @@@....@@......@@.....@
    @@.....@@......@@.....@
    @@....@@.......@@.....@
    @@....@@......@@......@
    @@....@@......@@......@
    @@....@@......@@.....@.
    @@....@@.....@@......@.
    @@.....@.....@@.....@..
    .@@....@@..@@@@....@...
    .@@.....@@@@.@@@@@@....
    ..@@...................
    ...@@..................
    ....@@.................
    .....@@@.......@@......
    ........@@@@@@@........
    .......................
    .......................
    .......................
    .......................

    left-bearing: 3
    right-bearing: -1


0x41:
'A':
    ...................
    .........@@........
    .........@@........
    .........@@@.......
    ........@@@@.......
    ........@.@@.......
    .......@@.@@@......
    .......@...@@......
    .......@...@@......
    ......@@...@@@.....
    ......@.....@@.....
    ......@.....@@.....
    .....@@.....@@@....
    .....@.......@@....
    .....@@@@@@@@@@....
    ....@@.......@@@...
    ....@.........@@...
    ....@.........@@...
    ...@@.........@@@..
    ...@...........@@..
    ...@...........@@..
    ..@@@.........@@@@.
    @@@@@@.......@@@@@@
    ...................
    ...................
    ...................
    ...................
    ...................
    ...................
    ...................



0x42:
'B':
    ................
    @@@@@@@@@@@.....
    .@@@.....@@@@...
    ..@@.......@@@..
    ..@@........@@..
    ..@@.........@@.
    ..@@.........@@.
    ..@@.........@@.
    ..@@.........@..
    ..@@........@@..
    ..@@......@@....
    ..@@@@@@@@@@....
    ..@@......@@@@..
    ..@@........@@@.
    ..@@.........@@.
    ..@@.........@@@
    ..@@..........@@
    ..@@..........@@
    ..@@..........@@
    ..@@.........@@.
    ..@@........@@@.
    .@@@......@@@@..
    @@@@@@@@@@@@....
    ................
    ................
    ................
    ................
    ................
    ................
    ................

    left-bearing: 1


0x43:
'C':
    ..................
    .......@@@@@@....@
    .....@@@....@@@..@
    ....@@........@@@@
    ...@@..........@@@
    ..@@............@@
    .@@..............@
    .@@...............
    @@................
    @@................
    @@................
    @@................
    @@................
    @@................
    @@................
    @@................
    .@@...............
    .@@...............
    ..@@.............@
    ...@@..........@@.
    ....@@........@@..
    .....@@@....@@@...
    .......@@@@@@.....
    ..................
    ..................
    ..................
    ..................
    ..................
    ..................
    ..................

    left-bearing: 1


0x44:
'D':
    ..................
    @@@@@@@@@@@.......
    .@@@......@@@.....
    ..@@........@@....
    ..@@.........@@...
    ..@@..........@@..
    ..@@...........@@.
    ..@@...........@@.
    ..@@............@@
    ..@@............@@
    ..@@............@@
    ..@@............@@
    ..@@............@@
    ..@@............@@
    ..@@............@@
    ..@@............@@
    ..@@...........@@.
    ..@@...........@@.
    ..@@..........@@..
    ..@@.........@@...
    ..@@........@@....
    .@@@......@@@.....
    @@@@@@@@@@@.......
    ..................
    ..................
    ..................
    ..................
    ..................
    ..................
    ..................

    left-bearing: 1


0x45:
'E':
    ...............
    @@@@@@@@@@@@@@.
    .@@@........@@.
    ..@@.........@.
    ..@@...........
    ..@@...........
    ..@@...........
    ..@@...........
    ..@@...........
    ..@@.......@...
    ..@@......@@...
    ..@@@@@@@@@@...
    ..@@......@@...
    ..@@.......@...
    ..@@...........
    ..@@...........
    ..@@...........
    ..@@...........
    ..@@...........
    ..@@...........
    ..@@..........@
    .@@@.........@@
    @@@@@@@@@@@@@@@
    ...............
    ...............
    ...............
    ...............
    ...............
    ...............
    ...............

    left-bearing: 1


0x46:
'F':
    ..............
    @@@@@@@@@@@@@@
    .@@@........@@
    ..@@.........@
    ..@@..........
    ..@@..........
    ..@@..........
    ..@@..........
    ..@@..........
    ..@@........@.
    ..@@.......@@.
    ..@@@@@@@@@@@.
    ..@@.......@@.
    ..@@........@.
    ..@@..........
    ..@@..........
    ..@@..........
    ..@@..........
    ..@@..........
    ..@@..........
    ..@@..........
    .@@@@.........
    @@@@@@........
    ..............
    ..............
    ..............
    ..............
    ..............
    ..............
    ..............

    left-bearing: 2
    right-bearing: -1


0x47:
'G':
    ....................
    .......@@@@@@....@..
    .....@@@....@@@..@..
    ....@@........@@@@..
    ...@@..........@@@..
    ..@@............@@..
    .@@..............@..
    .@@.................
    @@..................
    @@..................
    @@..................
    @@..................
    @@..................
    @@............@@@@@@
    @@..............@@..
    @@..............@@..
    .@@.............@@..
    .@@.............@@..
    ..@@...........@@@..
    ...@@..........@@...
    ....@@........@@....
    .....@@@....@@@.....
    .......@@@@@@.......
    ....................
    ....................
    ....................
    ....................
    ....................
    ....................
    ....................

    left-bearing: 1


0x48:
'H':
    ....................
    @@@@@@........@@@@@@
    .@@@@..........@@@@.
    ..@@............@@..
    ..@@............@@..
    ..@@............@@..
    ..@@............@@..
    ..@@............@@..
    ..@@............@@..
    ..@@............@@..
    ..@@............@@..
    ..@@@@@@@@@@@@@@@@..
    ..@@............@@..
    ..@@............@@..
    ..@@............@@..
    ..@@............@@..
    ..@@............@@..
    ..@@............@@..
    ..@@............@@..
    ..@@............@@..
    ..@@............@@..
    .@@@@..........@@@@.
    @@@@@@........@@@@@@
    ....................
    ....................
    ....................
    ....................
    ....................
    ....................
    ....................

    left-bearing: 1


0x49:
'I':
    ......
    @@@@@@
    .@@@@.
    ..@@..
    ..@@..
    ..@@..
    ..@@..
    ..@@..
    ..@@..
    ..@@..
    ..@@..
    ..@@..
    ..@@..
    ..@@..
    ..@@..
    ..@@..
    ..@@..
    ..@@..
    ..@@..
    ..@@..
    ..@@..
    .@@@@.
    @@@@@@
    ......
    ......
    ......
    ......
    ......
    ......
    ......

    left-bearing: 1


0x4a:
'J':
    ...........
    .....@@@@@@
    ......@@@@.
    .......@@..
    .......@@..
    .......@@..
    .......@@..
    .......@@..
    .......@@..
    .......@@..
    .......@@..
    .......@@..
    .......@@..
    .......@@..
    .......@@..
    .......@@..
    .......@@..
    .......@@..
    .......@@..
    @@....@@@..
    @@@...@@...
    @@@.@@@....
    .@@@@......
    ...........
    ...........
    ...........
    ...........
    ...........
    ...........
    ...........

    left-bearing: 1


0x4b:
'K':
    ...................
    @@@@@@.....@@@@@@..
    .@@@@.......@@@@...
    ..@@.........@@....
    ..@@........@@.....
    ..@@.......@@......
    ..@@......@@.......
    ..@@.....@@........
    ..@@....@@.........
    ..@@...@@..........
    ..@@@@@@...........
    ..@@@@@@...........
    ..@@@@@@@..........
    ..@@...@@@.........
    ..@@....@@@........
    ..@@.....@@@.......
    ..@@......@@@......
    ..@@.......@@@.....
    ..@@........@@@....
    ..@@.........@@@...
    ..@@..........@@@..
    .@@@@.........@@@@.
    @@@@@@.......@@@@@@
    ...................
    ...................
    ...................
    ...................
    ...................
    ...................
    ...................

    left-bearing: 1
    right-bearing: -1


0x4c:
'L':
    ...............
    @@@@@@.........
    .@@@@..........
    ..@@...........
    ..@@...........
    ..@@...........
    ..@@...........
    ..@@...........
    ..@@...........
    ..@@...........
    ..@@...........
    ..@@...........
    ..@@...........
    ..@@...........
    ..@@...........
    ..@@...........
    ..@@...........
    ..@@...........
    ..@@...........
    ..@@...........
    ..@@..........@
    .@@@.........@@
    @@@@@@@@@@@@@@@
    ...............
    ...............
    ...............
    ...............
    ...............
    ...............
    ...............

    left-bearing: 1
    right-bearing: -1


0x4d:
'M':
    .........................
    @@@@@..............@@@@@@
    .@@@@...............@@@@.
    ..@@@...............@@@..
    ..@@@@..............@@@..
    ..@.@@.............@.@@..
    ..@.@@@............@.@@..
    ..@..@@...........@..@@..
    ..@..@@@..........@..@@..
    ..@...@@..........@..@@..
    ..@...@@@........@...@@..
    ..@....@@........@...@@..
    ..@....@@@......@....@@..
    ..@.....@@......@....@@..
    ..@.....@@@.....@....@@..
    ..@......@@....@.....@@..
    ..@......@@@...@.....@@..
    ..@.......@@..@......@@..
    ..@.......@@@.@......@@..
    ..@........@@@@......@@..
    ..@........@@@.......@@..
    .@@@........@@......@@@@.
    @@@@@.......@@.....@@@@@@
    .........................
    .........................
    .........................
    .........................
    .........................
    .........................
    .........................

    left-bearing: 1
    right-bearing: -1


0x4e:
'N':
    ..................
    @@@@.........@@@@@
    .@@@..........@@@.
    ..@@...........@..
    ..@@@..........@..
    ..@@@@.........@..
    ..@.@@.........@..
    ..@.@@@........@..
    ..@..@@@.......@..
    ..@...@@.......@..
    ..@...@@@......@..
    ..@....@@@.....@..
    ..@.....@@.....@..
    ..@.....@@@....@..
    ..@......@@@...@..
    ..@.......@@...@..
    ..@.......@@@..@..
    ..@........@@@.@..
    ..@.........@@.@..
    ..@.........@@@@..
    ..@..........@@@..
    .@@@..........@@..
    @@@@@.........@@..
    ..................
    ..................
    ..................
    ..................
    ..................
    ..................
    ..................

    left-bearing: 1
    right-bearing: -1


0x4f:
'O':
    ....................
    .......@@@@@@.......
    .....@@@....@@@.....
    ....@@........@@....
    ...@@..........@@...
    ..@@............@@..
    .@@..............@@.
    .@@..............@@.
    @@................@@
    @@................@@
    @@................@@
    @@................@@
    @@................@@
    @@................@@
    @@................@@
    @@................@@
    .@@..............@@.
    .@@..............@@.
    ..@@............@@..
    ...@@..........@@@..
    ....@@........@@....
    .....@@@....@@@.....
    .......@@@@@@.......
    ....................
    ....................
    ....................
    ....................
    ....................
    ....................
    ....................

    left-bearing: 1


0x50:
'P':
    ...............
    @@@@@@@@@@@....
    .@@@.....@@@@..
    ..@@.......@@@.
    ..@@........@@.
    ..@@.........@@
    ..@@.........@@
    ..@@.........@@
    ..@@.........@.
    ..@@........@@.
    ..@@......@@@..
    ..@@@@@@@@@....
    ..@@...........
    ..@@...........
    ..@@...........
    ..@@...........
    ..@@...........
    ..@@...........
    ..@@...........
    ..@@...........
    ..@@...........
    .@@@@..........
    @@@@@@.........
    ...............
    ...............
    ...............
    ...............
    ...............
    ...............
    ...............

    left-bearing: 1


0x51:
'Q':
    ....................
    .......@@@@@@.......
    .....@@@....@@@.....
    ....@@........@@....
    ...@@..........@@...
    ..@@............@@..
    .@@..............@@.
    .@@..............@@.
    @@................@@
    @@................@@
    @@................@@
    @@................@@
    @@................@@
    @@................@@
    @@................@@
    @@................@@
    .@@..............@@.
    .@@..............@@.
    ..@@............@@..
    ...@@..........@@@..
    ....@@........@@....
    .....@@@....@@@.....
    .......@@@@@@.......
    .........@@@@.......
    ..........@@@.......
    ...........@@@......
    ............@@@.....
    .............@@@....
    ...............@@@@@
    ....................

    left-bearing: 2
    right-bearing: -1


0x52:
'R':
    ..................
    @@@@@@@@@@@.......
    .@@@.....@@@@.....
    ..@@.......@@@....
    ..@@........@@....
    ..@@.........@@...
    ..@@.........@@...
    ..@@.........@@...
    ..@@.........@....
    ..@@........@@....
    ..@@......@@@.....
    ..@@@@@@@@@.......
    ..@@...@@.........
    ..@@....@@........
    ..@@.....@@.......
    ..@@......@@......
    ..@@......@@@.....
    ..@@.......@@.....
    ..@@.......@@@....
    ..@@........@@@...
    ..@@.........@@@..
    .@@@@.........@@@.
    @@@@@@.......@@@@@
    ..................
    ..................
    ..................
    ..................
    ..................
    ..................
    ..................

    left-bearing: 1
    right-bearing: -1


0x53:
'S':
    ..............
    ....@@@@@...@.
    ..@@@...@@@.@.
    .@@.......@@@.
    .@@........@@.
    @@.........@@.
    @@..........@.
    @@@...........
    .@@@..........
    .@@@@@........
    ...@@@@@......
    .....@@@@@....
    .......@@@@@..
    .........@@@@.
    ..........@@@.
    ...........@@@
    ...........@@@
    @..........@@@
    @..........@@.
    @@@.......@@@.
    @@@@@....@@@..
    @..@@@@@@@@...
    @....@@@@.....
    ..............
    ..............
    ..............
    ..............
    ..............
    ..............
    ..............

    left-bearing: 1


0x54:
'T':
    ..................
    @@@@@@@@@@@@@@@@@@
    @@......@@......@@
    @.......@@.......@
    ........@@........
    ........@@........
    ........@@........
    ........@@........
    ........@@........
    ........@@........
    ........@@........
    ........@@........
    ........@@........
    ........@@........
    ........@@........
    ........@@........
    ........@@........
    ........@@........
    ........@@........
    ........@@........
    ........@@........
    .......@@@@.......
    ......@@@@@@......
    ..................
    ..................
    ..................
    ..................
    ..................
    ..................
    ..................

    left-bearing: 1


0x55:
'U':
    ...................
    @@@@@@........@@@@@
    .@@@@..........@@@.
    ..@@............@..
    ..@@............@..
    ..@@............@..
    ..@@............@..
    ..@@............@..
    ..@@............@..
    ..@@............@..
    ..@@............@..
    ..@@............@..
    ..@@............@..
    ..@@............@..
    ..@@............@..
    ..@@............@..
    ..@@............@..
    ..@@...........@@..
    ..@@...........@...
    ...@@.........@@...
    ...@@@.......@@....
    ....@@@@@@@@@@.....
    ......@@@@@@.......
    ...................
    ...................
    ...................
    ...................
    ...................
    ...................
    ...................

    left-bearing: 2
    right-bearing: -1


0x56:
'V':
    ...................
    @@@@@@.......@@@@@@
    .@@@@.........@@@@.
    ..@@...........@@..
    ..@@...........@...
    ...@@.........@@...
    ...@@.........@....
    ...@@.........@....
    ....@@.......@@....
    ....@@.......@.....
    ....@@.......@.....
    .....@@.....@@.....
    .....@@.....@......
    .....@@.....@......
    ......@@...@@......
    ......@@...@.......
    ......@@...@.......
    .......@@.@@.......
    .......@@.@........
    .......@@@@........
    ........@@@........
    ........@@.........
    ........@@.........
    ...................
    ...................
    ...................
    ...................
    ...................
    ...................
    ...................



0x57:
'W':
    ............................
    @@@@@@.....@@@@@@.....@@@@@@
    .@@@@.......@@@@.......@@@@.
    ..@@.........@@.........@@..
    ..@@.........@@.........@...
    ...@@........@@........@@...
    ...@@.......@@@@.......@....
    ...@@.......@.@@.......@....
    ....@@......@.@@......@@....
    ....@@......@.@@......@.....
    ....@@.....@@.@@@.....@.....
    .....@@....@...@@....@@.....
    .....@@....@...@@....@......
    .....@@....@...@@....@......
    ......@@..@@...@@@..@@......
    ......@@..@.....@@..@.......
    ......@@..@.....@@..@.......
    .......@@.@.....@@.@@.......
    .......@@@@.....@@@@........
    .......@@@.......@@@........
    ........@@.......@@@........
    ........@@.......@@.........
    ........@@.......@@.........
    ............................
    ............................
    ............................
    ............................
    ............................
    ............................
    ............................



0x58:
'X':
    ......................
    .@@@@@@@.......@@@@@..
    ..@@@@@.........@@@...
    ...@@@..........@@....
    ....@@@........@@.....
    .....@@........@......
    .....@@@......@@......
    ......@@@....@@.......
    .......@@@..@@........
    ........@@@@@.........
    .........@@@..........
    .........@@@@.........
    .........@@@@.........
    ........@@.@@@........
    .......@@...@@@.......
    ......@@.....@@@......
    ......@.......@@......
    .....@@.......@@@.....
    ....@@.........@@@....
    ...@@...........@@@...
    ..@@.............@@@..
    .@@@@...........@@@@@.
    @@@@@@.........@@@@@@@
    ......................
    ......................
    ......................
    ......................
    ......................
    ......................
    ......................



0x59:
'Y':
    ..................
    @@@@@@.......@@@@@
    .@@@@.........@@@.
    ..@@..........@@..
    ..@@@.........@...
    ...@@........@@...
    ...@@@.......@....
    ....@@......@@....
    ....@@@.....@.....
    .....@@....@@.....
    .....@@@...@......
    ......@@..@@......
    ......@@@.@.......
    .......@@@@.......
    .......@@@........
    ........@@........
    ........@@........
    ........@@........
    ........@@........
    ........@@........
    ........@@........
    .......@@@@.......
    ......@@@@@@......
    ..................
    ..................
    ..................
    ..................
    ..................
    ..................
    ..................



0x5a:
'Z':
    ................
    @@@@@@@@@@@@@@@.
    @@..........@@@.
    @...........@@@.
    ...........@@@..
    ..........@@@...
    ..........@@@...
    .........@@@....
    ........@@@.....
    ........@@@.....
    .......@@@......
    ......@@@.......
    ......@@@.......
    .....@@@........
    ....@@@.........
    ....@@@.........
    ...@@@..........
    ..@@@...........
    ..@@@...........
    .@@@............
    .@@@...........@
    @@@...........@@
    @@@@@@@@@@@@@@@@
    ................
    ................
    ................
    ................
    ................
    ................
    ................

    left-bearing: 1
    right-bearing: 1


0x5b:
'[':
    ......
    @@@@@@
    @@@@@@
    @@....
    @@....
    @@....
    @@....
    @@....
    @@....
    @@....
    @@....
    @@....
    @@....
    @@....
    @@....
    @@....
    @@....
    @@....
    @@....
    @@....
    @@....
    @@....
    @@....
    @@....
    @@....
    @@....
    @@@@@@
    @@@@@@
    ......
    ......

    left-bearing: 2


0x5c:
'\':
    ........
    @.......
    @@......
    @@......
    .@......
    .@@.....
    .@@.....
    ..@.....
    ..@@....
    ..@@....
    ...@....
    ...@@...
    ...@@...
    ....@...
    ....@@..
    ....@@..
    .....@..
    .....@@.
    .....@@.
    ......@.
    ......@@
    ......@@
    .......@
    ........
    ........
    ........
    ........
    ........
    ........
    ........



0x5d:
']':
    ......
    @@@@@@
    @@@@@@
    ....@@
    ....@@
    ....@@
    ....@@
    ....@@
    ....@@
    ....@@
    ....@@
    ....@@
    ....@@
    ....@@
    ....@@
    ....@@
    ....@@
    ....@@
    ....@@
    ....@@
    ....@@
    ....@@
    ....@@
    ....@@
    ....@@
    ....@@
    @@@@@@
    @@@@@@
    ......
    ......

    left-bearing: 1
    right-bearing: 2


0x5e:
'^':
    ...........
    .....@.....
    ....@@@....
    ....@.@....
    ...@@.@@...
    ...@...@...
    ..@@...@@..
    ..@.....@..
    .@@.....@@.
    .@.......@.
    @@.......@@
    @.........@
    @.........@
    ...........
    ...........
    ...........
    ...........
    ...........
    ...........
    ...........
    ...........
    ...........
    ...........
    ...........
    ...........
    ...........
    ...........
    ...........
    ...........
    ...........

    left-bearing: 1
    right-bearing: 1


0x5f:
'_':
    ................
    ................
    ................
    ................
    ................
    ................
    ................
    ................
    ................
    ................
    ................
    ................
    ................
    ................
    ................
    ................
    ................
    ................
    ................
    ................
    ................
    ................
    ................
    ................
    ................
    ................
    ................
    ................
    @@@@@@@@@@@@@@@@
    ................



0x60:
'`':
    ......
    @@@...
    @@@...
    .@@@..
    ..@@@.
    ....@@
    ......
    ......
    ......
    ......
    ......
    ......
    ......
    ......
    ......
    ......
    ......
    ......
    ......
    ......
    ......
    ......
    ......
    ......
    ......
    ......
    ......
    ......
    ......
    ......

    left-bearing: 1
    right-bearing: 2


0x61:
'a':
    ...........
    ...........
    ...........
    ...........
    ...........
    ...........
    ...........
    ...........
    ..@@@@@@...
    .@@@...@@..
    .@@.....@@.
    ........@@.
    ........@@.
    .....@@@@@.
    ...@@@..@@.
    ..@@....@@.
    .@@.....@@.
    @@......@@.
    @@......@@.
    @@......@@.
    @@@....@@@.
    .@@@@@@.@@.
    ..@@@....@@
    ...........
    ...........
    ...........
    ...........
    ...........
    ...........
    ...........

    left-bearing: 1
    right-bearing: -1


0x62:
'b':
    ............
    @@@.........
    .@@.........
    .@@.........
    .@@.........
    .@@.........
    .@@.........
    .@@.........
    .@@..@@@....
    .@@.@.@@@@..
    .@@@....@@@.
    .@@......@@.
    .@@......@@@
    .@@.......@@
    .@@.......@@
    .@@.......@@
    .@@.......@@
    .@@.......@@
    .@@......@@.
    .@@......@@.
    .@@@....@@..
    .@@@@.@@@...
    .@.@@@@.....
    ............
    ............
    ............
    ............
    ............
    ............
    ............

    left-bearing: 1


0x63:
'c':
    ...........
    ...........
    ...........
    ...........
    ...........
    ...........
    ...........
    ...........
    ....@@@@@@.
    ..@@....@@@
    .@@......@@
    .@.........
    @@.........
    @@.........
    @@.........
    @@.........
    @@.........
    @@.........
    @@.........
    .@@.......@
    .@@@.....@.
    ..@@@@.@@..
    ....@@@@...
    ...........
    ...........
    ...........
    ...........
    ...........
    ...........
    ...........

    left-bearing: 1


0x64:
'd':
    ............
    ........@@@.
    .........@@.
    .........@@.
    .........@@.
    .........@@.
    .........@@.
    .........@@.
    ....@@@@.@@.
    ..@@....@@@.
    .@@......@@.
    .@@......@@.
    @@.......@@.
    @@.......@@.
    @@.......@@.
    @@.......@@.
    @@.......@@.
    @@.......@@.
    @@.......@@.
    .@.......@@.
    .@@......@@.
    ..@@....@@@.
    ....@@@@@.@@
    ............
    ............
    ............
    ............
    ............
    ............
    ............

    left-bearing: 1


0x65:
'e':
    ...........
    ...........
    ...........
    ...........
    ...........
    ...........
    ...........
    ...........
    ....@@@@@..
    ..@@....@@.
    .@@......@@
    .@.......@@
    @@.......@@
    @@@@@@@@@@@
    @@.........
    @@.........
    @@.........
    @@.........
    @@.........
    .@@.......@
    .@@@.....@.
    ..@@@@.@@..
    ....@@@@...
    ...........
    ...........
    ...........
    ...........
    ...........
    ...........
    ...........

    left-bearing: 1


0x66:
'f':
    ........
    .....@@.
    ...@@@@@
    ...@..@@
    ..@@....
    ..@@....
    ..@@....
    ..@@....
    @@@@@@@.
    ..@@....
    ..@@....
    ..@@....
    ..@@....
    ..@@....
    ..@@....
    ..@@....
    ..@@....
    ..@@....
    ..@@....
    ..@@....
    ..@@....
    ..@@....
    .@@@@...
    ........
    ........
    ........
    ........
    ........
    ........
    ........



0x67:
'g':
    ..............
    ..............
    ..............
    ..............
    ..............
    ..............
    ..............
    ..............
    ....@@@@@@@@@.
    ..@@....@@....
    ..@......@....
    .@@......@@...
    .@@......@@...
    .@@......@@...
    .@@......@@...
    ..@......@....
    ..@@....@@....
    ..@@@@@@......
    .@@...........
    .@@...........
    ..@@@@@@@@....
    ...@@@@@@@@@..
    ..@@@.....@@@.
    .@@.........@@
    @@...........@
    @@..........@@
    @@.........@@.
    .@@@.....@@@..
    ...@@@@@@@....
    ..............

    left-bearing: 1
    right-bearing: -1


0x68:
'h':
    .............
    @@@..........
    .@@..........
    .@@..........
    .@@..........
    .@@..........
    .@@..........
    .@@..........
    .@@...@@@@...
    .@@..@@@@@@..
    .@@.@....@@@.
    .@@@......@@.
    .@@@......@@.
    .@@.......@@.
    .@@.......@@.
    .@@.......@@.
    .@@.......@@.
    .@@.......@@.
    .@@.......@@.
    .@@.......@@.
    .@@.......@@.
    .@@.......@@.
    @@@@.....@@@@
    .............
    .............
    .............
    .............
    .............
    .............
    .............

    left-bearing: 1


0x69:
'i':
    ....
    ....
    .@@.
    .@@.
    ....
    ....
    ....
    ....
    @@@.
    .@@.
    .@@.
    .@@.
    .@@.
    .@@.
    .@@.
    .@@.
    .@@.
    .@@.
    .@@.
    .@@.
    .@@.
    .@@.
    @@@@
    ....
    ....
    ....
    ....
    ....
    ....
    ....

    left-bearing: 1


0x6a:
'j':
    ......
    ......
    ....@@
    ....@@
    ......
    ......
    ......
    ......
    ...@@@
    ....@@
    ....@@
    ....@@
    ....@@
    ....@@
    ....@@
    ....@@
    ....@@
    ....@@
    ....@@
    ....@@
    ....@@
    ....@@
    ....@@
    ....@@
    ....@@
    ....@@
    @@..@@
    @@@@@.
    .@@@..
    ......

    left-bearing: -1
    right-bearing: 3


0x6b:
'k':
    .............
    @@@..........
    .@@..........
    .@@..........
    .@@..........
    .@@..........
    .@@..........
    .@@..........
    .@@...@@@@@..
    .@@....@@....
    .@@...@@.....
    .@@...@......
    .@@..@.......
    .@@.@........
    .@@@@........
    .@@.@@.......
    .@@..@@......
    .@@...@@.....
    .@@....@@....
    .@@....@@@...
    .@@.....@@@..
    .@@......@@@.
    @@@@....@@@@@
    .............
    .............
    .............
    .............
    .............
    .............
    .............

    left-bearing: 1
    right-bearing: -1


0x6c:
'l':
    ....
    @@@.
    .@@.
    .@@.
    .@@.
    .@@.
    .@@.
    .@@.
    .@@.
    .@@.
    .@@.
    .@@.
    .@@.
    .@@.
    .@@.
    .@@.
    .@@.
    .@@.
    .@@.
    .@@.
    .@@.
    .@@.
    @@@@
    ....
    ....
    ....
    ....
    ....
    ....
    ....

    left-bearing: 1


0x6d:
'm':
    ....................
    ....................
    ....................
    ....................
    ....................
    ....................
    ....................
    ....................
    @@@..@@@@....@@@@...
    .@@.@@@@@@..@@@@@@..
    .@@@....@@@@....@@@.
    .@@......@@......@@.
    .@@......@@......@@.
    .@@......@@......@@.
    .@@......@@......@@.
    .@@......@@......@@.
    .@@......@@......@@.
    .@@......@@......@@.
    .@@......@@......@@.
    .@@......@@......@@.
    .@@......@@......@@.
    .@@......@@......@@.
    @@@@....@@@@....@@@@
    ....................
    ....................
    ....................
    ....................
    ....................
    ....................
    ....................

    left-bearing: 1


0x6e:
'n':
    ............
    ............
    ............
    ............
    ............
    ............
    ............
    ............
    @@@..@@@@...
    .@@.@@@@@@..
    .@@@....@@@.
    .@@......@@.
    .@@......@@.
    .@@......@@.
    .@@......@@.
    .@@......@@.
    .@@......@@.
    .@@......@@.
    .@@......@@.
    .@@......@@.
    .@@......@@.
    .@@......@@.
    @@@@....@@@@
    ............
    ............
    ............
    ............
    ............
    ............
    ............

    left-bearing: 1


0x6f:
'o':
    .............
    .............
    .............
    .............
    .............
    .............
    .............
    .............
    ....@@@@@....
    ..@@.....@@..
    .@@.......@@.
    .@@.......@@.
    @@.........@@
    @@.........@@
    @@.........@@
    @@.........@@
    @@.........@@
    @@.........@@
    @@.........@@
    .@@.......@@.
    .@@.......@@.
    ..@@.....@@..
    ....@@@@@....
    .............
    .............
    .............
    .............
    .............
    .............
    .............

    left-bearing: 1


0x70:
'p':
    ............
    ............
    ............
    ............
    ............
    ............
    ............
    ............
    @@@..@@@....
    .@@.@.@@@@..
    .@@@....@@@.
    .@@......@@.
    .@@......@@@
    .@@.......@@
    .@@.......@@
    .@@.......@@
    .@@.......@@
    .@@.......@@
    .@@......@@@
    .@@......@@.
    .@@@....@@@.
    .@@.@.@@@@..
    .@@..@@@....
    .@@.........
    .@@.........
    .@@.........
    .@@.........
    .@@.........
    @@@@........
    ............

    left-bearing: 1


0x71:
'q':
    .............
    .............
    .............
    .............
    .............
    .............
    .............
    .............
    ....@@@..@@..
    ..@@@@.@.@@..
    .@@@....@@@..
    .@@......@@..
    @@@......@@..
    @@.......@@..
    @@.......@@..
    @@.......@@..
    @@.......@@..
    @@.......@@..
    @@@......@@..
    .@@......@@..
    .@@@....@@@..
    ..@@@@.@.@@..
    ....@@@..@@..
    .........@@..
    .........@@..
    .........@@..
    .........@@..
    .........@@..
    ........@@@@.
    .............

    left-bearing: 1


0x72:
'r':
    .......
    .......
    .......
    .......
    .......
    .......
    .......
    .......
    @@@..@@
    .@@.@@@
    .@@@...
    .@@....
    .@@....
    .@@....
    .@@....
    .@@....
    .@@....
    .@@....
    .@@....
    .@@....
    .@@....
    .@@....
    @@@@...
    .......
    .......
    .......
    .......
    .......
    .......
    .......

    left-bearing: 1


0x73:
's':
    .........
    .........
    .........
    .........
    .........
    .........
    .........
    .........
    ...@@@@@.
    .@@...@@.
    @@.....@.
    @@.......
    @@.......
    @@@......
    .@@@@....
    ..@@@@@..
    ....@@@@.
    ......@@@
    .......@@
    @......@@
    @......@@
    @@....@@.
    @@@@@@...
    .........
    .........
    .........
    .........
    .........
    .........
    .........

    left-bearing: 1


0x74:
't':
    .........
    .........
    .........
    .........
    ....@....
    ...@@....
    ...@@....
    ...@@....
    @@@@@@@@@
    ...@@....
    ...@@....
    ...@@....
    ...@@....
    ...@@....
    ...@@....
    ...@@....
    ...@@....
    ...@@....
    ...@@....
    ...@@....
    ...@@...@
    ...@@@.@.
    ....@@@..
    .........
    .........
    .........
    .........
    .........
    .........
    .........



0x75:
'u':
    ............
    ............
    ............
    ............
    ............
    ............
    ............
    ............
    @@@.....@@@.
    .@@......@@.
    .@@......@@.
    .@@......@@.
    .@@......@@.
    .@@......@@.
    .@@......@@.
    .@@......@@.
    .@@......@@.
    .@@......@@.
    .@@......@@.
    .@@......@@.
    ..@@....@@@.
    ..@@@..@.@@.
    ....@@@..@@@
    ............
    ............
    ............
    ............
    ............
    ............
    ............

    left-bearing: 1


0x76:
'v':
    ............
    ............
    ............
    ............
    ............
    ............
    ............
    ............
    @@@@....@@@@
    .@@......@@.
    .@@......@..
    .@@......@..
    ..@@.....@..
    ..@@....@...
    ..@@....@...
    ...@@...@...
    ...@@...@...
    ...@@..@....
    ....@@.@....
    ....@@.@....
    ....@@@.....
    .....@@.....
    .....@@.....
    ............
    ............
    ............
    ............
    ............
    ............
    ............



0x77:
'w':
    ...................
    ...................
    ...................
    ...................
    ...................
    ...................
    ...................
    ...................
    @@@@....@@@@...@@@@
    .@@......@@.....@@.
    .@@......@@.....@..
    .@@......@@.....@..
    ..@@.....@@.....@..
    ..@@....@@@....@...
    ..@@....@.@@...@...
    ...@@...@.@@...@...
    ...@@...@.@@...@...
    ...@@..@...@@.@....
    ....@@.@...@@.@....
    ....@@@@...@@.@....
    ....@@@.....@@.....
    .....@@.....@@.....
    .....@@.....@@.....
    ...................
    ...................
    ...................
    ...................
    ...................
    ...................
    ...................



0x78:
'x':
    ..............
    ..............
    ..............
    ..............
    ..............
    ..............
    ..............
    ..............
    @@@@@....@@@@@
    .@@@......@@..
    ..@@@....@@...
    ...@@@..@@....
    ...@@@..@.....
    ....@@@@@.....
    .....@@@......
    .....@@@......
    .....@@@@.....
    ....@@.@@@....
    ....@...@@@...
    ...@@...@@@...
    ..@@.....@@@..
    .@@.......@@@.
    @@@@.....@@@@@
    ..............
    ..............
    ..............
    ..............
    ..............
    ..............
    ..............

    left-bearing: 1


0x79:
'y':
    ..............
    ..............
    ..............
    ..............
    ..............
    ..............
    ..............
    ..............
    @@@@@.....@@@@
    .@@@.......@@.
    ..@@.......@..
    ..@@.......@..
    ...@@.....@...
    ...@@.....@...
    ...@@.....@...
    ....@@...@....
    ....@@...@....
    ....@@...@....
    .....@@.@.....
    .....@@.@.....
    .....@@@@.....
    ......@@......
    ......@@......
    .....@@.......
    .....@@.......
    ....@@........
    @@@@@.........
    @@@@..........
    .@@...........
    ..............



0x7a:
'z':
    ..........
    ..........
    ..........
    ..........
    ..........
    ..........
    ..........
    ..........
    @@@@@@@@@@
    @@......@@
    @......@@.
    .......@@.
    ......@@..
    .....@@...
    .....@@...
    ....@@....
    ...@@.....
    ...@@.....
    ..@@......
    .@@.......
    .@@......@
    @@......@@
    @@@@@@@@@@
    ..........
    ..........
    ..........
    ..........
    ..........
    ..........
    ..........

    left-bearing: 1


0x7b:
'{':
    ..........
    .......@@@
    .....@@...
    .....@....
    ....@@....
    ....@@....
    ....@@....
    ....@@....
    ....@@....
    ....@@....
    ....@@....
    ....@.....
    ...@@.....
    ...@......
    @@@.......
    ...@......
    ...@@.....
    ....@.....
    ....@@....
    ....@@....
    ....@@....
    ....@@....
    ....@@....
    ....@@....
    ....@@....
    ....@@....
    .....@....
    .....@@...
    .......@@@
    ..........

    left-bearing: 2
    right-bearing: -1


0x7c:
'|':
    ..
    @@
    @@
    @@
    @@
    @@
    @@
    @@
    @@
    @@
    @@
    @@
    @@
    @@
    @@
    @@
    @@
    @@
    @@
    @@
    @@
    @@
    @@
    @@
    @@
    @@
    @@
    @@
    @@
    ..

    left-bearing: 3
    right-bearing: -1


0x7d:
'}':
    ..........
    @@@.......
    ...@@.....
    ....@.....
    ....@@....
    ....@@....
    ....@@....
    ....@@....
    ....@@....
    ....@@....
    ....@@....
    .....@....
    .....@@...
    ......@...
    .......@@@
    ......@...
    .....@@...
    .....@....
    ....@@....
    ....@@....
    ....@@....
    ....@@....
    ....@@....
    ....@@....
    ....@@....
    ....@@....
    ....@.....
    ...@@.....
    @@@.......
    ..........

    left-bearing: 2
    right-bearing: -1


0x7e:
'~':
    ..............
    ..............
    ..............
    ..............
    ..............
    ..............
    ..............
    ..............
    ..............
    ..............
    ..............
    ..............
    ...@@@........
    ..@@@@@......@
    .@@...@.....@@
    @@.....@...@@.
    @......@@@@@..
    ........@@@...
    ..............
    ..............
    ..............
    ..............
    ..............
    ..............
    ..............
    ..............
    ..............
    ..............
    ..............
    ..............

    left-bearing: 1


0x7f:
    ....................
    @@@@@@@@@@@@@@@@@@@@
    @@@@@@@@@@@@@@@@@@@@
    @@@...............@@
    @@@...............@@
    @@@...............@@
    @@@...............@@
    @@@...............@@
    @@@...............@@
    @@@...............@@
    @@@...............@@
    @@@...............@@
    @@@...............@@
    @@@...............@@
    @@@...............@@
    @@@...............@@
    @@@...............@@
    @@@...............@@
    @@@...............@@
    @@@...............@@
    @@@...............@@
    @@@...............@@
    @@@...............@@
    @@@...............@@
    @@@...............@@
    @@@...............@@
    @@@@@@@@@@@@@@@@@@@@
    @@@@@@@@@@@@@@@@@@@@
    ....................
    ....................

    left-bearing: 2
    right-bearing: -1


0x80:
    ....................
    @@@@@@@@@@@@@@@@@@@@
    @@@@@@@@@@@@@@@@@@@@
    @@@...............@@
    @@@...............@@
    @@@...............@@
    @@@...............@@
    @@@...............@@
    @@@...............@@
    @@@...............@@
    @@@...............@@
    @@@...............@@
    @@@...............@@
    @@@...............@@
    @@@...............@@
    @@@...............@@
    @@@...............@@
    @@@...............@@
    @@@...............@@
    @@@...............@@
    @@@...............@@
    @@@...............@@
    @@@...............@@
    @@@...............@@
    @@@...............@@
    @@@...............@@
    @@@@@@@@@@@@@@@@@@@@
    @@@@@@@@@@@@@@@@@@@@
    ....................
    ....................

    left-bearing: 2
    right-bearing: -1


0x81:
    ....................
    @@@@@@@@@@@@@@@@@@@@
    @@@@@@@@@@@@@@@@@@@@
    @@@...............@@
    @@@...............@@
    @@@...............@@
    @@@...............@@
    @@@...............@@
    @@@...............@@
    @@@...............@@
    @@@...............@@
    @@@...............@@
    @@@...............@@
    @@@...............@@
    @@@...............@@
    @@@...............@@
    @@@...............@@
    @@@...............@@
    @@@...............@@
    @@@...............@@
    @@@...............@@
    @@@...............@@
    @@@...............@@
    @@@...............@@
    @@@...............@@
    @@@...............@@
    @@@@@@@@@@@@@@@@@@@@
    @@@@@@@@@@@@@@@@@@@@
    ....................
    ....................

    left-bearing: 2
    right-bearing: -1


0x82:
    ....................
    @@@@@@@@@@@@@@@@@@@@
    @@@@@@@@@@@@@@@@@@@@
    @@@...............@@
    @@@...............@@
    @@@...............@@
    @@@...............@@
    @@@...............@@
    @@@...............@@
    @@@...............@@
    @@@...............@@
    @@@...............@@
    @@@...............@@
    @@@...............@@
    @@@...............@@
    @@@...............@@
    @@@...............@@
    @@@...............@@
    @@@...............@@
    @@@...............@@
    @@@...............@@
    @@@...............@@
    @@@...............@@
    @@@...............@@
    @@@...............@@
    @@@...............@@
    @@@@@@@@@@@@@@@@@@@@
    @@@@@@@@@@@@@@@@@@@@
    ....................
    ....................

    left-bearing: 2
    right-bearing: -1


0x83:
    ....................
    @@@@@@@@@@@@@@@@@@@@
    @@@@@@@@@@@@@@@@@@@@
    @@@...............@@
    @@@...............@@
    @@@...............@@
    @@@...............@@
    @@@...............@@
    @@@...............@@
    @@@...............@@
    @@@...............@@
    @@@...............@@
    @@@...............@@
    @@@...............@@
    @@@...............@@
    @@@...............@@
    @@@...............@@
    @@@...............@@
    @@@...............@@
    @@@...............@@
    @@@...............@@
    @@@...............@@
    @@@...............@@
    @@@...............@@
    @@@...............@@
    @@@...............@@
    @@@@@@@@@@@@@@@@@@@@
    @@@@@@@@@@@@@@@@@@@@
    ....................
    ....................

    left-bearing: 2
    right-bearing: -1


0x84:
    ....................
    @@@@@@@@@@@@@@@@@@@@
    @@@@@@@@@@@@@@@@@@@@
    @@@...............@@
    @@@...............@@
    @@@...............@@
    @@@...............@@
    @@@...............@@
    @@@...............@@
    @@@...............@@
    @@@...............@@
    @@@...............@@
    @@@...............@@
    @@@...............@@
    @@@...............@@
    @@@...............@@
    @@@...............@@
    @@@...............@@
    @@@...............@@
    @@@...............@@
    @@@...............@@
    @@@...............@@
    @@@...............@@
    @@@...............@@
    @@@...............@@
    @@@...............@@
    @@@@@@@@@@@@@@@@@@@@
    @@@@@@@@@@@@@@@@@@@@
    ....................
    ....................

    left-bearing: 2
    right-bearing: -1


0x85:
    ....................
    @@@@@@@@@@@@@@@@@@@@
    @@@@@@@@@@@@@@@@@@@@
    @@@...............@@
    @@@...............@@
    @@@...............@@
    @@@...............@@
    @@@...............@@
    @@@...............@@
    @@@...............@@
    @@@...............@@
    @@@...............@@
    @@@...............@@
    @@@...............@@
    @@@...............@@
    @@@...............@@
    @@@...............@@
    @@@...............@@
    @@@...............@@
    @@@...............@@
    @@@...............@@
    @@@...............@@
    @@@...............@@
    @@@...............@@
    @@@...............@@
    @@@...............@@
    @@@@@@@@@@@@@@@@@@@@
    @@@@@@@@@@@@@@@@@@@@
    ....................
    ....................

    left-bearing: 2
    right-bearing: -1


0x86:
    ....................
    @@@@@@@@@@@@@@@@@@@@
    @@@@@@@@@@@@@@@@@@@@
    @@@...............@@
    @@@...............@@
    @@@...............@@
    @@@...............@@
    @@@...............@@
    @@@...............@@
    @@@...............@@
    @@@...............@@
    @@@...............@@
    @@@...............@@
    @@@...............@@
    @@@...............@@
    @@@...............@@
    @@@...............@@
    @@@...............@@
    @@@...............@@
    @@@...............@@
    @@@...............@@
    @@@...............@@
    @@@...............@@
    @@@...............@@
    @@@...............@@
    @@@...............@@
    @@@@@@@@@@@@@@@@@@@@
    @@@@@@@@@@@@@@@@@@@@
    ....................
    ....................

    left-bearing: 2
    right-bearing: -1


0x87:
    ....................
    @@@@@@@@@@@@@@@@@@@@
    @@@@@@@@@@@@@@@@@@@@
    @@@...............@@
    @@@...............@@
    @@@...............@@
    @@@...............@@
    @@@...............@@
    @@@...............@@
    @@@...............@@
    @@@...............@@
    @@@...............@@
    @@@...............@@
    @@@...............@@
    @@@...............@@
    @@@...............@@
    @@@...............@@
    @@@...............@@
    @@@...............@@
    @@@...............@@
    @@@...............@@
    @@@...............@@
    @@@...............@@
    @@@...............@@
    @@@...............@@
    @@@...............@@
    @@@@@@@@@@@@@@@@@@@@
    @@@@@@@@@@@@@@@@@@@@
    ....................
    ....................

    left-bearing: 2
    right-bearing: -1


0x88:
    ....................
    @@@@@@@@@@@@@@@@@@@@
    @@@@@@@@@@@@@@@@@@@@
    @@@...............@@
    @@@...............@@
    @@@...............@@
    @@@...............@@
    @@@...............@@
    @@@...............@@
    @@@...............@@
    @@@...............@@
    @@@...............@@
    @@@...............@@
    @@@...............@@
    @@@...............@@
    @@@...............@@
    @@@...............@@
    @@@...............@@
    @@@...............@@
    @@@...............@@
    @@@...............@@
    @@@...............@@
    @@@...............@@
    @@@...............@@
    @@@...............@@
    @@@...............@@
    @@@@@@@@@@@@@@@@@@@@
    @@@@@@@@@@@@@@@@@@@@
    ....................
    ....................

    left-bearing: 2
    right-bearing: -1


0x89:
    ....................
    @@@@@@@@@@@@@@@@@@@@
    @@@@@@@@@@@@@@@@@@@@
    @@@...............@@
    @@@...............@@
    @@@...............@@
    @@@...............@@
    @@@...............@@
    @@@...............@@
    @@@...............@@
    @@@...............@@
    @@@...............@@
    @@@...............@@
    @@@...............@@
    @@@...............@@
    @@@...............@@
    @@@...............@@
    @@@...............@@
    @@@...............@@
    @@@...............@@
    @@@...............@@
    @@@...............@@
    @@@...............@@
    @@@...............@@
    @@@...............@@
    @@@...............@@
    @@@@@@@@@@@@@@@@@@@@
    @@@@@@@@@@@@@@@@@@@@
    ....................
    ....................

    left-bearing: 2
    right-bearing: -1


0x8a:
    ....................
    @@@@@@@@@@@@@@@@@@@@
    @@@@@@@@@@@@@@@@@@@@
    @@@...............@@
    @@@...............@@
    @@@...............@@
    @@@...............@@
    @@@...............@@
    @@@...............@@
    @@@...............@@
    @@@...............@@
    @@@...............@@
    @@@...............@@
    @@@...............@@
    @@@...............@@
    @@@...............@@
    @@@...............@@
    @@@...............@@
    @@@...............@@
    @@@...............@@
    @@@...............@@
    @@@...............@@
    @@@...............@@
    @@@...............@@
    @@@...............@@
    @@@...............@@
    @@@@@@@@@@@@@@@@@@@@
    @@@@@@@@@@@@@@@@@@@@
    ....................
    ....................

    left-bearing: 2
    right-bearing: -1


0x8b:
    ....................
    @@@@@@@@@@@@@@@@@@@@
    @@@@@@@@@@@@@@@@@@@@
    @@@...............@@
    @@@...............@@
    @@@...............@@
    @@@...............@@
    @@@...............@@
    @@@...............@@
    @@@...............@@
    @@@...............@@
    @@@...............@@
    @@@...............@@
    @@@...............@@
    @@@...............@@
    @@@...............@@
    @@@...............@@
    @@@...............@@
    @@@...............@@
    @@@...............@@
    @@@...............@@
    @@@...............@@
    @@@...............@@
    @@@...............@@
    @@@...............@@
    @@@...............@@
    @@@@@@@@@@@@@@@@@@@@
    @@@@@@@@@@@@@@@@@@@@
    ....................
    ....................

    left-bearing: 2
    right-bearing: -1


0x8c:
    ....................
    @@@@@@@@@@@@@@@@@@@@
    @@@@@@@@@@@@@@@@@@@@
    @@@...............@@
    @@@...............@@
    @@@...............@@
    @@@...............@@
    @@@...............@@
    @@@...............@@
    @@@...............@@
    @@@...............@@
    @@@...............@@
    @@@...............@@
    @@@...............@@
    @@@...............@@
    @@@...............@@
    @@@...............@@
    @@@...............@@
    @@@...............@@
    @@@...............@@
    @@@...............@@
    @@@...............@@
    @@@...............@@
    @@@...............@@
    @@@...............@@
    @@@...............@@
    @@@@@@@@@@@@@@@@@@@@
    @@@@@@@@@@@@@@@@@@@@
    ....................
    ....................

    left-bearing: 2
    right-bearing: -1


0x8d:
    ....................
    @@@@@@@@@@@@@@@@@@@@
    @@@@@@@@@@@@@@@@@@@@
    @@@...............@@
    @@@...............@@
    @@@...............@@
    @@@...............@@
    @@@...............@@
    @@@...............@@
    @@@...............@@
    @@@...............@@
    @@@...............@@
    @@@...............@@
    @@@...............@@
    @@@...............@@
    @@@...............@@
    @@@...............@@
    @@@...............@@
    @@@...............@@
    @@@...............@@
    @@@...............@@
    @@@...............@@
    @@@...............@@
    @@@...............@@
    @@@...............@@
    @@@...............@@
    @@@@@@@@@@@@@@@@@@@@
    @@@@@@@@@@@@@@@@@@@@
    ....................
    ....................

    left-bearing: 2
    right-bearing: -1


0x8e:
    ....................
    @@@@@@@@@@@@@@@@@@@@
    @@@@@@@@@@@@@@@@@@@@
    @@@...............@@
    @@@...............@@
    @@@...............@@
    @@@...............@@
    @@@...............@@
    @@@...............@@
    @@@...............@@
    @@@...............@@
    @@@...............@@
    @@@...............@@
    @@@...............@@
    @@@...............@@
    @@@...............@@
    @@@...............@@
    @@@...............@@
    @@@...............@@
    @@@...............@@
    @@@...............@@
    @@@...............@@
    @@@...............@@
    @@@...............@@
    @@@...............@@
    @@@...............@@
    @@@@@@@@@@@@@@@@@@@@
    @@@@@@@@@@@@@@@@@@@@
    ....................
    ....................

    left-bearing: 2
    right-bearing: -1


0x8f:
    ....................
    @@@@@@@@@@@@@@@@@@@@
    @@@@@@@@@@@@@@@@@@@@
    @@@...............@@
    @@@...............@@
    @@@...............@@
    @@@...............@@
    @@@...............@@
    @@@...............@@
    @@@...............@@
    @@@...............@@
    @@@...............@@
    @@@...............@@
    @@@...............@@
    @@@...............@@
    @@@...............@@
    @@@...............@@
    @@@...............@@
    @@@...............@@
    @@@...............@@
    @@@...............@@
    @@@...............@@
    @@@...............@@
    @@@...............@@
    @@@...............@@
    @@@...............@@
    @@@@@@@@@@@@@@@@@@@@
    @@@@@@@@@@@@@@@@@@@@
    ....................
    ....................

    left-bearing: 2
    right-bearing: -1


0x90:
    ....................
    @@@@@@@@@@@@@@@@@@@@
    @@@@@@@@@@@@@@@@@@@@
    @@@...............@@
    @@@...............@@
    @@@...............@@
    @@@...............@@
    @@@...............@@
    @@@...............@@
    @@@...............@@
    @@@...............@@
    @@@...............@@
    @@@...............@@
    @@@...............@@
    @@@...............@@
    @@@...............@@
    @@@...............@@
    @@@...............@@
    @@@...............@@
    @@@...............@@
    @@@...............@@
    @@@...............@@
    @@@...............@@
    @@@...............@@
    @@@...............@@
    @@@...............@@
    @@@@@@@@@@@@@@@@@@@@
    @@@@@@@@@@@@@@@@@@@@
    ....................
    ....................

    left-bearing: 2
    right-bearing: -1


0x91:
    ....................
    @@@@@@@@@@@@@@@@@@@@
    @@@@@@@@@@@@@@@@@@@@
    @@@...............@@
    @@@...............@@
    @@@...............@@
    @@@...............@@
    @@@...............@@
    @@@...............@@
    @@@...............@@
    @@@...............@@
    @@@...............@@
    @@@...............@@
    @@@...............@@
    @@@...............@@
    @@@...............@@
    @@@...............@@
    @@@...............@@
    @@@...............@@
    @@@...............@@
    @@@...............@@
    @@@...............@@
    @@@...............@@
    @@@...............@@
    @@@...............@@
    @@@...............@@
    @@@@@@@@@@@@@@@@@@@@
    @@@@@@@@@@@@@@@@@@@@
    ....................
    ....................

    left-bearing: 2
    right-bearing: -1


0x92:
    ....................
    @@@@@@@@@@@@@@@@@@@@
    @@@@@@@@@@@@@@@@@@@@
    @@@...............@@
    @@@...............@@
    @@@...............@@
    @@@...............@@
    @@@...............@@
    @@@...............@@
    @@@...............@@
    @@@...............@@
    @@@...............@@
    @@@...............@@
    @@@...............@@
    @@@...............@@
    @@@...............@@
    @@@...............@@
    @@@...............@@
    @@@...............@@
    @@@...............@@
    @@@...............@@
    @@@...............@@
    @@@...............@@
    @@@...............@@
    @@@...............@@
    @@@...............@@
    @@@@@@@@@@@@@@@@@@@@
    @@@@@@@@@@@@@@@@@@@@
    ....................
    ....................

    left-bearing: 2
    right-bearing: -1


0x93:
    ....................
    @@@@@@@@@@@@@@@@@@@@
    @@@@@@@@@@@@@@@@@@@@
    @@@...............@@
    @@@...............@@
    @@@...............@@
    @@@...............@@
    @@@...............@@
    @@@...............@@
    @@@...............@@
    @@@...............@@
    @@@...............@@
    @@@...............@@
    @@@...............@@
    @@@...............@@
    @@@...............@@
    @@@...............@@
    @@@...............@@
    @@@...............@@
    @@@...............@@
    @@@...............@@
    @@@...............@@
    @@@...............@@
    @@@...............@@
    @@@...............@@
    @@@...............@@
    @@@@@@@@@@@@@@@@@@@@
    @@@@@@@@@@@@@@@@@@@@
    ....................
    ....................

    left-bearing: 2
    right-bearing: -1


0x94:
    ....................
    @@@@@@@@@@@@@@@@@@@@
    @@@@@@@@@@@@@@@@@@@@
    @@@...............@@
    @@@...............@@
    @@@...............@@
    @@@...............@@
    @@@...............@@
    @@@...............@@
    @@@...............@@
    @@@...............@@
    @@@...............@@
    @@@...............@@
    @@@...............@@
    @@@...............@@
    @@@...............@@
    @@@...............@@
    @@@...............@@
    @@@...............@@
    @@@...............@@
    @@@...............@@
    @@@...............@@
    @@@...............@@
    @@@...............@@
    @@@...............@@
    @@@...............@@
    @@@@@@@@@@@@@@@@@@@@
    @@@@@@@@@@@@@@@@@@@@
    ....................
    ....................

    left-bearing: 2
    right-bearing: -1


0x95:
    ....................
    @@@@@@@@@@@@@@@@@@@@
    @@@@@@@@@@@@@@@@@@@@
    @@@...............@@
    @@@...............@@
    @@@...............@@
    @@@...............@@
    @@@...............@@
    @@@...............@@
    @@@...............@@
    @@@...............@@
    @@@...............@@
    @@@...............@@
    @@@...............@@
    @@@...............@@
    @@@...............@@
    @@@...............@@
    @@@...............@@
    @@@...............@@
    @@@...............@@
    @@@...............@@
    @@@...............@@
    @@@...............@@
    @@@...............@@
    @@@...............@@
    @@@...............@@
    @@@@@@@@@@@@@@@@@@@@
    @@@@@@@@@@@@@@@@@@@@
    ....................
    ....................

    left-bearing: 2
    right-bearing: -1


0x96:
    ....................
    @@@@@@@@@@@@@@@@@@@@
    @@@@@@@@@@@@@@@@@@@@
    @@@...............@@
    @@@...............@@
    @@@...............@@
    @@@...............@@
    @@@...............@@
    @@@...............@@
    @@@...............@@
    @@@...............@@
    @@@...............@@
    @@@...............@@
    @@@...............@@
    @@@...............@@
    @@@...............@@
    @@@...............@@
    @@@...............@@
    @@@...............@@
    @@@...............@@
    @@@...............@@
    @@@...............@@
    @@@...............@@
    @@@...............@@
    @@@...............@@
    @@@...............@@
    @@@@@@@@@@@@@@@@@@@@
    @@@@@@@@@@@@@@@@@@@@
    ....................
    ....................

    left-bearing: 2
    right-bearing: -1


0x97:
    ....................
    @@@@@@@@@@@@@@@@@@@@
    @@@@@@@@@@@@@@@@@@@@
    @@@...............@@
    @@@...............@@
    @@@...............@@
    @@@...............@@
    @@@...............@@
    @@@...............@@
    @@@...............@@
    @@@...............@@
    @@@...............@@
    @@@...............@@
    @@@...............@@
    @@@...............@@
    @@@...............@@
    @@@...............@@
    @@@...............@@
    @@@...............@@
    @@@...............@@
    @@@...............@@
    @@@...............@@
    @@@...............@@
    @@@...............@@
    @@@...............@@
    @@@...............@@
    @@@@@@@@@@@@@@@@@@@@
    @@@@@@@@@@@@@@@@@@@@
    ....................
    ....................

    left-bearing: 2
    right-bearing: -1


0x98:
    ....................
    @@@@@@@@@@@@@@@@@@@@
    @@@@@@@@@@@@@@@@@@@@
    @@@...............@@
    @@@...............@@
    @@@...............@@
    @@@...............@@
    @@@...............@@
    @@@...............@@
    @@@...............@@
    @@@...............@@
    @@@...............@@
    @@@...............@@
    @@@...............@@
    @@@...............@@
    @@@...............@@
    @@@...............@@
    @@@...............@@
    @@@...............@@
    @@@...............@@
    @@@...............@@
    @@@...............@@
    @@@...............@@
    @@@...............@@
    @@@...............@@
    @@@...............@@
    @@@@@@@@@@@@@@@@@@@@
    @@@@@@@@@@@@@@@@@@@@
    ....................
    ....................

    left-bearing: 2
    right-bearing: -1


0x99:
    ....................
    @@@@@@@@@@@@@@@@@@@@
    @@@@@@@@@@@@@@@@@@@@
    @@@...............@@
    @@@...............@@
    @@@...............@@
    @@@...............@@
    @@@...............@@
    @@@...............@@
    @@@...............@@
    @@@...............@@
    @@@...............@@
    @@@...............@@
    @@@...............@@
    @@@...............@@
    @@@...............@@
    @@@...............@@
    @@@...............@@
    @@@...............@@
    @@@...............@@
    @@@...............@@
    @@@...............@@
    @@@...............@@
    @@@...............@@
    @@@...............@@
    @@@...............@@
    @@@@@@@@@@@@@@@@@@@@
    @@@@@@@@@@@@@@@@@@@@
    ....................
    ....................

    left-bearing: 2
    right-bearing: -1


0x9a:
    ....................
    @@@@@@@@@@@@@@@@@@@@
    @@@@@@@@@@@@@@@@@@@@
    @@@...............@@
    @@@...............@@
    @@@...............@@
    @@@...............@@
    @@@...............@@
    @@@...............@@
    @@@...............@@
    @@@...............@@
    @@@...............@@
    @@@...............@@
    @@@...............@@
    @@@...............@@
    @@@...............@@
    @@@...............@@
    @@@...............@@
    @@@...............@@
    @@@...............@@
    @@@...............@@
    @@@...............@@
    @@@...............@@
    @@@...............@@
    @@@...............@@
    @@@...............@@
    @@@@@@@@@@@@@@@@@@@@
    @@@@@@@@@@@@@@@@@@@@
    ....................
    ....................

    left-bearing: 2
    right-bearing: -1


0x9b:
    ....................
    @@@@@@@@@@@@@@@@@@@@
    @@@@@@@@@@@@@@@@@@@@
    @@@...............@@
    @@@...............@@
    @@@...............@@
    @@@...............@@
    @@@...............@@
    @@@...............@@
    @@@...............@@
    @@@...............@@
    @@@...............@@
    @@@...............@@
    @@@...............@@
    @@@...............@@
    @@@...............@@
    @@@...............@@
    @@@...............@@
    @@@...............@@
    @@@...............@@
    @@@...............@@
    @@@...............@@
    @@@...............@@
    @@@...............@@
    @@@...............@@
    @@@...............@@
    @@@@@@@@@@@@@@@@@@@@
    @@@@@@@@@@@@@@@@@@@@
    ....................
    ....................

    left-bearing: 2
    right-bearing: -1


0x9c:
    ....................
    @@@@@@@@@@@@@@@@@@@@
    @@@@@@@@@@@@@@@@@@@@
    @@@...............@@
    @@@...............@@
    @@@...............@@
    @@@...............@@
    @@@...............@@
    @@@...............@@
    @@@...............@@
    @@@...............@@
    @@@...............@@
    @@@...............@@
    @@@...............@@
    @@@...............@@
    @@@...............@@
    @@@...............@@
    @@@...............@@
    @@@...............@@
    @@@...............@@
    @@@...............@@
    @@@...............@@
    @@@...............@@
    @@@...............@@
    @@@...............@@
    @@@...............@@
    @@@@@@@@@@@@@@@@@@@@
    @@@@@@@@@@@@@@@@@@@@
    ....................
    ....................

    left-bearing: 2
    right-bearing: -1


0x9d:
    ....................
    @@@@@@@@@@@@@@@@@@@@
    @@@@@@@@@@@@@@@@@@@@
    @@@...............@@
    @@@...............@@
    @@@...............@@
    @@@...............@@
    @@@...............@@
    @@@...............@@
    @@@...............@@
    @@@...............@@
    @@@...............@@
    @@@...............@@
    @@@...............@@
    @@@...............@@
    @@@...............@@
    @@@...............@@
    @@@...............@@
    @@@...............@@
    @@@...............@@
    @@@...............@@
    @@@...............@@
    @@@...............@@
    @@@...............@@
    @@@...............@@
    @@@...............@@
    @@@@@@@@@@@@@@@@@@@@
    @@@@@@@@@@@@@@@@@@@@
    ....................
    ....................

    left-bearing: 2
    right-bearing: -1


0x9e:
    ....................
    @@@@@@@@@@@@@@@@@@@@
    @@@@@@@@@@@@@@@@@@@@
    @@@...............@@
    @@@...............@@
    @@@...............@@
    @@@...............@@
    @@@...............@@
    @@@...............@@
    @@@...............@@
    @@@...............@@
    @@@...............@@
    @@@...............@@
    @@@...............@@
    @@@...............@@
    @@@...............@@
    @@@...............@@
    @@@...............@@
    @@@...............@@
    @@@...............@@
    @@@...............@@
    @@@...............@@
    @@@...............@@
    @@@...............@@
    @@@...............@@
    @@@...............@@
    @@@@@@@@@@@@@@@@@@@@
    @@@@@@@@@@@@@@@@@@@@
    ....................
    ....................

    left-bearing: 2
    right-bearing: -1


0x9f:
    ....................
    @@@@@@@@@@@@@@@@@@@@
    @@@@@@@@@@@@@@@@@@@@
    @@@...............@@
    @@@...............@@
    @@@...............@@
    @@@...............@@
    @@@...............@@
    @@@...............@@
    @@@...............@@
    @@@...............@@
    @@@...............@@
    @@@...............@@
    @@@...............@@
    @@@...............@@
    @@@...............@@
    @@@...............@@
    @@@...............@@
    @@@...............@@
    @@@...............@@
    @@@...............@@
    @@@...............@@
    @@@...............@@
    @@@...............@@
    @@@...............@@
    @@@...............@@
    @@@@@@@@@@@@@@@@@@@@
    @@@@@@@@@@@@@@@@@@@@
    ....................
    ....................

    left-bearing: 2
    right-bearing: -1


0xa0:
u+00a0:
    -

    right-bearing: 8


0xa1:
'':
    ....
    ....
    ....
    ....
    ....
    ....
    ....
    .@@.
    .@@.
    ....
    ....
    ....
    ....
    .@..
    .@..
    .@@.
    .@@.
    .@@.
    .@@.
    @@@@
    @@@@
    @@@@
    @@@@
    @@@@
    @@@@
    @@@@
    @@@@
    .@@.
    .@@.
    ....

    left-bearing: 4
    right-bearing: -2


0xa2:
'':
    ...........
    ...........
    ...........
    ...........
    ...........
    .........@.
    .........@.
    ........@..
    ....@@@@@@.
    ..@@...@@@@
    .@.....@.@@
    .@....@....
    @@....@....
    @@....@....
    @@...@.....
    @@...@.....
    @@..@......
    @@..@......
    @@.@.......
    .@@@......@
    .@@@@....@.
    ..@@@@.@@..
    ..@.@@@@...
    .@.........
    .@.........
    ...........
    ...........
    ...........
    ...........
    ...........

    left-bearing: 1
    right-bearing: 2


0xa3:
'':
    .............
    ......@@@....
    ....@@@@@@...
    ....@....@@..
    ...@@....@@..
    ...@@........
    ...@@........
    ...@@........
    ...@@........
    ...@@........
    @@@@@@@@.....
    ...@@........
    ...@@........
    ...@@........
    ...@@........
    ...@@........
    ...@@........
    ...@@........
    ...@@........
    .@@@@@......@
    @..@@@@....@.
    @@@@..@@.@@..
    .@@....@@@...
    .............
    .............
    .............
    .............
    .............
    .............
    .............

    left-bearing: 1


0xa4:
'':
    ..............
    ..............
    ..............
    ..............
    @@..........@@
    .@@........@@.
    ..@@.@@@@.@@..
    ...@@@@@@@@...
    ...@@....@@...
    ..@@......@@..
    ..@@......@@..
    ..@@......@@..
    ..@@......@@..
    ..@@......@@..
    ...@@....@@...
    ...@@@@@@@@...
    ..@@.@@@@.@@..
    .@@........@@.
    @@..........@@
    ..............
    ..............
    ..............
    ..............
    ..............
    ..............
    ..............
    ..............
    ..............
    ..............
    ..............

    left-bearing: 1


0xa5:
'':
    ..................
    @@@@@@......@@@@@.
    .@@@@........@@@..
    ..@@.........@@...
    ...@@........@....
    ...@@.......@@....
    ....@@......@.....
    .....@@....@@.....
    .....@@...@@......
    ......@@..@.......
    .......@@@@.......
    ........@@........
    ........@@........
    ....@@@@@@@@@@....
    ........@@........
    ....@@@@@@@@@@....
    ........@@........
    ........@@........
    ........@@........
    ........@@........
    ........@@........
    .......@@@@.......
    ......@@@@@@......
    ..................
    ..................
    ..................
    ..................
    ..................
    ..................
    ..................



0xa6:
'':
    ...
    @@@
    @@@
    @@@
    @@@
    @@@
    @@@
    @@@
    @@@
    @@@
    ...
    ...
    ...
    ...
    @@@
    @@@
    @@@
    @@@
    @@@
    @@@
    @@@
    @@@
    @@@
    ...
    ...
    ...
    ...
    ...
    ...
    ...

    left-bearing: 3
    right-bearing: -1


0xa7:
'':
    ...@@@@@..
    ..@....@@.
    .@@....@@.
    .@@....@@.
    .@@.......
    .@@@......
    ..@@@.....
    ...@@@....
    ..@.@@@...
    .@...@@@..
    @.....@@@.
    @......@@@
    @@......@@
    @@@......@
    .@@@.....@
    ..@@@...@.
    ...@@@.@..
    ....@@@...
    .....@@@..
    ......@@@.
    .......@@.
    .@@....@@.
    .@@....@@.
    .@@....@..
    ..@@@@@...
    ..........
    ..........
    ..........
    ..........
    ..........

    left-bearing: 2
    right-bearing: 1


0xa8:
'':
    .......
    .......
    .......
    @@...@@
    @@...@@
    .......
    .......
    .......
    .......
    .......
    .......
    .......
    .......
    .......
    .......
    .......
    .......
    .......
    .......
    .......
    .......
    .......
    .......
    .......
    .......
    .......
    .......
    .......
    .......
    .......

    left-bearing: 1


0xa9:
'':
    .....................
    .....................
    ........@@@@@........
    ......@@@@.@@@@......
    ....@@@.......@@@....
    ...@@...........@@...
    ..@@.....@@@@....@@..
    ..@....@@....@@...@..
    .@@....@......@...@@.
    .@....@........@...@.
    @@....@............@@
    @@...@.............@@
    @....@..............@
    @@...@.............@@
    @@....@............@@
    .@....@........@...@.
    .@@....@......@...@@.
    ..@....@@....@@...@..
    ..@@.....@@@@....@@..
    ...@@...........@@...
    ....@@@.......@@@....
    ......@@@@.@@@@......
    ........@@@@@........
    .....................
    .....................
    .....................
    .....................
    .....................
    .....................
    .....................

    left-bearing: 1
    right-bearing: 1


0xaa:
'':
    ........
    ..@@@...
    .@..@...
    @....@..
    .....@..
    ..@@@@..
    .@...@..
    @....@..
    @...@@..
    .@@@..@@
    ........
    @@@@@@@@
    @@@@@@@@
    ........
    ........
    ........
    ........
    ........
    ........
    ........
    ........
    ........
    ........
    ........
    ........
    ........
    ........
    ........
    ........
    ........

    left-bearing: 1


0xab:
'':
    ...........
    ...........
    ...........
    ...........
    ...........
    ...........
    ...........
    ...........
    ...........
    .....@....@
    ....@@...@@
    ...@@...@@.
    ..@@...@@..
    .@@...@@...
    @@...@@....
    @@...@@....
    .@@...@@...
    ..@@...@@..
    ...@@...@@.
    ....@@...@@
    .....@....@
    ...........
    ...........
    ...........
    ...........
    ...........
    ...........
    ...........
    ...........
    ...........

    left-bearing: 1
    right-bearing: 3


0xac:
'':
    ..............
    ..............
    ..............
    ..............
    ..............
    ..............
    ..............
    ..............
    ..............
    @@@@@@@@@@@@@@
    .............@
    .............@
    .............@
    .............@
    .............@
    .............@
    .............@
    .............@
    ..............
    ..............
    ..............
    ..............
    ..............
    ..............
    ..............
    ..............
    ..............
    ..............
    ..............
    ..............

    left-bearing: 3
    right-bearing: -1


0xad:
u+00ad:
    .........
    .........
    .........
    .........
    .........
    .........
    .........
    .........
    .........
    .........
    .........
    .........
    .........
    .........
    @@@@@@@@@
    .........
    .........
    .........
    .........
    .........
    .........
    .........
    .........
    .........
    .........
    .........
    .........
    .........
    .........
    .........

    left-bearing: 1


0xae:
'':
    .....................
    .....................
    ........@@@@@........
    ......@@@@.@@@@......
    ....@@@.......@@@....
    ...@@...........@@...
    ..@@..@@@@@@@@...@@..
    ..@.....@....@@...@..
    .@@.....@.....@...@@.
    .@......@.....@....@.
    @@......@.....@....@@
    @@......@....@@....@@
    @.......@@@@@@......@
    @@......@..@.......@@
    @@......@...@......@@
    .@......@....@.....@.
    .@@.....@....@@...@@.
    ..@...@@@@....@@..@..
    ..@@.............@@..
    ...@@...........@@...
    ....@@@.......@@@....
    ......@@@@.@@@@......
    ........@@@@@........
    .....................
    .....................
    .....................
    .....................
    .....................
    .....................
    .....................

    left-bearing: 1
    right-bearing: 1


0xaf:
'':
    ........
    ........
    ........
    @@@@@@@@
    @@@@@@@@
    ........
    ........
    ........
    ........
    ........
    ........
    ........
    ........
    ........
    ........
    ........
    ........
    ........
    ........
    ........
    ........
    ........
    ........
    ........
    ........
    ........
    ........
    ........
    ........
    ........

    left-bearing: 1


0xb0:
'':
    ........
    ........
    ..@@@@..
    .@....@.
    @......@
    @......@
    @......@
    @......@
    .@....@.
    ..@@@@..
    ........
    ........
    ........
    ........
    ........
    ........
    ........
    ........
    ........
    ........
    ........
    ........
    ........
    ........
    ........
    ........
    ........
    ........
    ........
    ........

    left-bearing: 1


0xb1:
'':
    ............
    ............
    ............
    ............
    ............
    ............
    ............
    ............
    ............
    .....@@.....
    .....@@.....
    .....@@.....
    .....@@.....
    .....@@.....
    @@@@@@@@@@@@
    .....@@.....
    .....@@.....
    .....@@.....
    .....@@.....
    .....@@.....
    ............
    @@@@@@@@@@@@
    @@@@@@@@@@@@
    ............
    ............
    ............
    ............
    ............
    ............
    ............

    left-bearing: 1


0xb2:
'':
    ........
    ..@@@@..
    .@...@@.
    @.....@@
    ......@@
    ......@@
    ......@.
    .....@@.
    ....@@..
    ....@...
    ...@....
    ..@.....
    .@.....@
    @@@@@@@.
    ........
    ........
    ........
    ........
    ........
    ........
    ........
    ........
    ........
    ........
    ........
    ........
    ........
    ........
    ........
    ........

    right-bearing: 1


0xb3:
'':
    ........
    ..@@@@..
    .@....@.
    @.....@@
    ......@@
    ......@.
    ...@@@..
    ......@.
    ......@@
    ......@@
    ......@@
    @.....@@
    .@....@.
    ..@@@@..
    ........
    ........
    ........
    ........
    ........
    ........
    ........
    ........
    ........
    ........
    ........
    ........
    ........
    ........
    ........
    ........

    right-bearing: 1


0xb4:
'':
    ......
    ...@@@
    ...@@@
    ..@@@.
    .@@@..
    @@....
    ......
    ......
    ......
    ......
    ......
    ......
    ......
    ......
    ......
    ......
    ......
    ......
    ......
    ......
    ......
    ......
    ......
    ......
    ......
    ......
    ......
    ......
    ......
    ......

    left-bearing: 2


0xb5:
'':
    .............
    .............
    .............
    .............
    .............
    .............
    .............
    .............
    @@@.....@@@..
    .@@......@@..
    .@@......@@..
    .@@......@@..
    .@@......@@..
    .@@......@@..
    .@@......@@..
    .@@......@@..
    .@@......@@..
    .@@......@@..
    .@@......@@..
    .@@......@@..
    .@@@....@@@..
    .@@@@@.@.@@..
    .@@.@@@..@@@@
    .@@..........
    .@@..........
    .@@..........
    @@@..........
    @@@..........
    .@@@.........
    .............

    left-bearing: 1


0xb6:
'':
    ...........
    ....@@@@@@@
    ...@@@@@@@@
    ..@@@@...@.
    .@@@@@...@.
    .@@@@@...@.
    @@@@@@...@.
    @@@@@@...@.
    @@@@@@...@.
    @@@@@@...@.
    .@@@@@...@.
    .@@@@@...@.
    ..@@@@...@.
    ...@@@...@.
    ....@@...@.
    .....@...@.
    .....@...@.
    .....@...@.
    .....@...@.
    .....@...@.
    .....@...@.
    .....@...@.
    .....@...@.
    .....@...@.
    .....@...@.
    .....@...@.
    .....@...@.
    .....@...@.
    .....@...@.
    ...........

    left-bearing: 1
    right-bearing: 1


0xb7:
'':
    ......
    ......
    ......
    ......
    ......
    ......
    ......
    ......
    ......
    .@@@@.
    @@@@@@
    @@@@@@
    @@@@@@
    @@@@@@
    @@@@@@
    .@@@@.
    ......
    ......
    ......
    ......
    ......
    ......
    ......
    ......
    ......
    ......
    ......
    ......
    ......
    ......

    left-bearing: 1
    right-bearing: 1


0xb8:
'':
    ........
    ........
    ........
    ........
    ........
    ........
    ........
    ........
    ........
    ........
    ........
    ........
    ........
    ........
    ........
    ........
    ........
    ........
    ........
    ........
    ........
    ........
    ........
    ....@@..
    ...@@...
    ...@@@@.
    ......@@
    ......@@
    @@...@@.
    ..@@@@..

    left-bearing: 1


0xb9:
'':
    ......
    ...@..
    ...@..
    ..@@..
    @@@@..
    ...@..
    ...@..
    ...@..
    ...@..
    ...@..
    ...@..
    ...@..
    ...@..
    @@@@@@
    ......
    ......
    ......
    ......
    ......
    ......
    ......
    ......
    ......
    ......
    ......
    ......
    ......
    ......
    ......
    ......

    left-bearing: 1
    right-bearing: 1


0xba:
'':
    ........
    ..@@@@..
    .@@..@@.
    @@....@@
    @@....@@
    @@....@@
    @@....@@
    @@....@@
    .@@..@@.
    ..@@@@..
    ........
    @@@@@@@@
    @@@@@@@@
    ........
    ........
    ........
    ........
    ........
    ........
    ........
    ........
    ........
    ........
    ........
    ........
    ........
    ........
    ........
    ........
    ........

    left-bearing: 1


0xbb:
'':
    ...........
    ...........
    ...........
    ...........
    ...........
    ...........
    ...........
    ...........
    ...........
    @....@.....
    @@...@@....
    .@@...@@...
    ..@@...@@..
    ...@@...@@.
    ....@@...@@
    ....@@...@@
    ...@@...@@.
    ..@@...@@..
    .@@...@@...
    @@...@@....
    @....@.....
    ...........
    ...........
    ...........
    ...........
    ...........
    ...........
    ...........
    ...........
    ...........

    left-bearing: 2


0xbc:
'':
    ....................
    ...@..........@@....
    ...@..........@@....
    ..@@.........@@.....
    @@@@.........@@.....
    ...@........@@......
    ...@........@@......
    ...@.......@@.......
    ...@......@@........
    ...@......@@........
    ...@.....@@.....@@..
    ...@.....@@.....@@..
    ...@....@@.....@@@..
    @@@@@@..@@....@.@@..
    .......@@.....@.@@..
    .......@@....@..@@..
    ......@@....@...@@..
    .....@@.....@...@@..
    .....@@....@....@@..
    ....@@....@@@@@@@@@@
    ....@@..........@@..
    ...@@...........@@..
    ...@@...........@@..
    ....................
    ....................
    ....................
    ....................
    ....................
    ....................
    ....................

    left-bearing: 2
    right-bearing: -1


0xbd:
'':
    ...................
    ...@..........@@...
    ...@..........@@...
    ..@@.........@@....
    @@@@.........@@....
    ...@........@@.....
    ...@........@@.....
    ...@.......@@......
    ...@......@@.......
    ...@......@@.......
    ...@.....@@..@@@@..
    ...@.....@@.@...@@.
    ...@....@@.@.....@@
    @@@@@@..@@.......@@
    .......@@........@@
    .......@@........@.
    ......@@........@@.
    .....@@........@@..
    .....@@........@...
    ....@@........@....
    ....@@.......@.....
    ...@@.......@.....@
    ...@@......@@@@@@@@
    ...................
    ...................
    ...................
    ...................
    ...................
    ...................
    ...................

    left-bearing: 2


0xbe:
'':
    .....................
    ..@@@@.........@@....
    .@....@........@@....
    @.....@@......@@.....
    ......@@......@@.....
    ......@......@@......
    ...@@@.......@@......
    ......@.....@@.......
    ......@@...@@........
    ......@@...@@........
    ......@@..@@.....@@..
    @.....@@..@@.....@@..
    .@....@..@@.....@@@..
    ..@@@@...@@....@.@@..
    ........@@.....@.@@..
    ........@@....@..@@..
    .......@@....@...@@..
    ......@@.....@...@@..
    ......@@....@....@@..
    .....@@....@@@@@@@@@@
    .....@@..........@@..
    ....@@...........@@..
    ....@@...........@@..
    .....................
    .....................
    .....................
    .....................
    .....................
    .....................
    .....................

    right-bearing: 2


0xbf:
'':
    ..........
    ..........
    ..........
    ..........
    ..........
    ..........
    ..........
    .....@@...
    .....@@...
    ..........
    ..........
    ..........
    .....@....
    .....@....
    .....@....
    ....@@....
    ....@@....
    ...@@@....
    ...@@.....
    ..@@@.....
    .@@@......
    .@@.......
    @@......@.
    @@.....@@@
    @@......@@
    @@.......@
    .@@.....@@
    ..@@...@@.
    ...@@@@@..
    ..........

    left-bearing: 1
    right-bearing: 2


0xc0:
'':
    ...................
    ......@@...........
    ......@@@..........
    .......@@@.........
    ........@@@........
    ..........@@.......
    ...................
    .........@.........
    ........@@@........
    ........@@@........
    .......@@.@@.......
    .......@..@@.......
    ......@@...@@......
    ......@....@@......
    .....@@.....@@.....
    .....@@@@@@@@@.....
    ....@@.......@@....
    ...@@.........@@...
    ...@..........@@...
    ..@@...........@@..
    ..@............@@..
    .@@@..........@@@@.
    @@@@@........@@@@@@
    ...................
    ...................
    ...................
    ...................
    ...................
    ...................
    ...................



0xc1:
'':
    ...................
    ...........@@......
    ..........@@@......
    .........@@@.......
    ........@@@........
    .......@@..........
    ...................
    .........@.........
    ........@@@........
    ........@@@........
    .......@@.@@.......
    .......@..@@.......
    ......@@...@@......
    ......@....@@......
    .....@@.....@@.....
    .....@@@@@@@@@.....
    ....@@.......@@....
    ...@@.........@@...
    ...@..........@@...
    ..@@...........@@..
    ..@............@@..
    .@@@..........@@@@.
    @@@@@........@@@@@@
    ...................
    ...................
    ...................
    ...................
    ...................
    ...................
    ...................

    right-bearing: 2


0xc2:
'':
    ...................
    .........@.........
    ........@@@........
    .......@@@@@.......
    ......@@@.@@@......
    .....@@.....@@.....
    ...................
    .........@.........
    ........@@@........
    ........@@@........
    .......@@.@@.......
    .......@..@@.......
    ......@@...@@......
    ......@....@@......
    .....@@.....@@.....
    .....@@@@@@@@@.....
    ....@@.......@@....
    ...@@.........@@...
    ...@..........@@...
    ..@@...........@@..
    ..@............@@..
    .@@@..........@@@@.
    @@@@@........@@@@@@
    ...................
    ...................
    ...................
    ...................
    ...................
    ...................
    ...................

    right-bearing: 2


0xc3:
'':
    ...................
    ...................
    ......@@@....@@....
    .....@@.@@@.@@.....
    ....@@....@@@......
    ...................
    ...................
    .........@.........
    ........@@@........
    ........@@@........
    .......@@.@@.......
    .......@..@@.......
    ......@@...@@......
    ......@....@@......
    .....@@.....@@.....
    .....@@@@@@@@@.....
    ....@@.......@@....
    ...@@.........@@...
    ...@..........@@...
    ..@@...........@@..
    ..@............@@..
    .@@@..........@@@@.
    @@@@@........@@@@@@
    ...................
    ...................
    ...................
    ...................
    ...................
    ...................
    ...................

    right-bearing: 2


0xc4:
'':
    ...................
    .....@@.....@@.....
    ....@@@@...@@@@....
    ....@@@@...@@@@....
    .....@@.....@@.....
    ...................
    ...................
    .........@.........
    ........@@@........
    ........@@@........
    .......@@.@@.......
    .......@..@@.......
    ......@@...@@......
    ......@....@@......
    .....@@.....@@.....
    .....@@@@@@@@@.....
    ....@@.......@@....
    ...@@.........@@...
    ...@..........@@...
    ..@@...........@@..
    ..@............@@..
    .@@@..........@@@@.
    @@@@@........@@@@@@
    ...................
    ...................
    ...................
    ...................
    ...................
    ...................
    ...................

    right-bearing: 2


0xc5:
'':
    ...................
    ........@@@........
    .......@@.@@.......
    .......@...@.......
    .......@@.@@.......
    ........@@@........
    ...................
    .........@.........
    ........@@@........
    ........@@@........
    .......@@.@@.......
    .......@..@@.......
    ......@@...@@......
    ......@....@@......
    .....@@.....@@.....
    .....@@@@@@@@@.....
    ....@@.......@@....
    ...@@.........@@...
    ...@..........@@...
    ..@@...........@@..
    ..@............@@..
    .@@@..........@@@@.
    @@@@@........@@@@@@
    ...................
    ...................
    ...................
    ...................
    ...................
    ...................
    ...................

    right-bearing: 2


0xc6:
'':
    .........................
    ..........@@@@@@@@@@@@@@.
    ..........@@@@........@@.
    .........@@.@@.........@.
    .........@..@@...........
    ........@@..@@...........
    ........@...@@...........
    ........@...@@...........
    .......@@...@@...........
    .......@....@@......@....
    .......@....@@.....@@....
    ......@@....@@@@@@@@@....
    ......@.....@@.....@@....
    .....@@.....@@......@....
    .....@@@@@@@@@...........
    .....@......@@...........
    ....@@......@@...........
    ....@.......@@...........
    ....@.......@@...........
    ...@@.......@@...........
    ...@........@@..........@
    ..@@@......@@@.........@@
    @@@@@@@...@@@@@@@@@@@@@@@
    .........................
    .........................
    .........................
    .........................
    .........................
    .........................
    .........................

    right-bearing: 1


0xc7:
'':
    ..................
    .......@@@@@@....@
    .....@@@....@@@..@
    ....@@........@@@@
    ...@@..........@@@
    ..@@............@@
    .@@..............@
    .@@...............
    @@................
    @@................
    @@................
    @@................
    @@................
    @@................
    @@................
    @@................
    .@@...............
    .@@...............
    ..@@.............@
    ...@@..........@@.
    ....@@........@@..
    .....@@@....@@@...
    .......@@@@@@.....
    .........@@.......
    ........@@........
    ........@@@@......
    ...........@@.....
    ...........@@.....
    .....@@...@@......
    .......@@@@.......

    left-bearing: 1


0xc8:
'':
    ...............
    ....@@.........
    ....@@@........
    .....@@@.......
    ......@@@......
    ........@@.....
    ...............
    ...............
    @@@@@@@@@@@@@@.
    .@@@........@@.
    ..@@.........@.
    ..@@...........
    ..@@.......@...
    ..@@......@@...
    ..@@@@@@@@@@...
    ..@@......@@...
    ..@@.......@...
    ..@@...........
    ..@@...........
    ..@@...........
    ..@@..........@
    .@@@.........@@
    @@@@@@@@@@@@@@@
    ...............
    ...............
    ...............
    ...............
    ...............
    ...............
    ...............

    left-bearing: 1
    right-bearing: 1


0xc9:
'':
    ...............
    .........@@....
    ........@@@....
    .......@@@.....
    ......@@@......
    .....@@........
    ...............
    ...............
    @@@@@@@@@@@@@@.
    .@@@........@@.
    ..@@.........@.
    ..@@...........
    ..@@.......@...
    ..@@......@@...
    ..@@@@@@@@@@...
    ..@@......@@...
    ..@@.......@...
    ..@@...........
    ..@@...........
    ..@@...........
    ..@@..........@
    .@@@.........@@
    @@@@@@@@@@@@@@@
    ...............
    ...............
    ...............
    ...............
    ...............
    ...............
    ...............

    left-bearing: 1
    right-bearing: 2


0xca:
'':
    ...............
    .......@.......
    ......@@@......
    .....@@@@@.....
    ....@@@.@@@....
    ...@@.....@@...
    ...............
    ...............
    @@@@@@@@@@@@@@.
    .@@@........@@.
    ..@@.........@.
    ..@@...........
    ..@@.......@...
    ..@@......@@...
    ..@@@@@@@@@@...
    ..@@......@@...
    ..@@.......@...
    ..@@...........
    ..@@...........
    ..@@...........
    ..@@..........@
    .@@@.........@@
    @@@@@@@@@@@@@@@
    ...............
    ...............
    ...............
    ...............
    ...............
    ...............
    ...............

    left-bearing: 1
    right-bearing: 2


0xcb:
'':
    ...............
    ...@@.....@@...
    ..@@@@...@@@@..
    ..@@@@...@@@@..
    ...@@.....@@...
    ...............
    ...............
    ...............
    @@@@@@@@@@@@@@.
    .@@@........@@.
    ..@@.........@.
    ..@@...........
    ..@@.......@...
    ..@@......@@...
    ..@@@@@@@@@@...
    ..@@......@@...
    ..@@.......@...
    ..@@...........
    ..@@...........
    ..@@...........
    ..@@..........@
    .@@@.........@@
    @@@@@@@@@@@@@@@
    ...............
    ...............
    ...............
    ...............
    ...............
    ...............
    ...............

    left-bearing: 1
    right-bearing: 2


0xcc:
'':
    .......
    @@.....
    @@@....
    .@@@...
    ..@@@..
    ....@@.
    .......
    .......
    .@@@@@@
    ..@@@@.
    ...@@..
    ...@@..
    ...@@..
    ...@@..
    ...@@..
    ...@@..
    ...@@..
    ...@@..
    ...@@..
    ...@@..
    ...@@..
    ..@@@@.
    .@@@@@@
    .......
    .......
    .......
    .......
    .......
    .......
    .......

    left-bearing: 1


0xcd:
'':
    .......
    .....@@
    ....@@@
    ...@@@.
    ..@@@..
    .@@....
    .......
    .......
    @@@@@@.
    .@@@@..
    ..@@...
    ..@@...
    ..@@...
    ..@@...
    ..@@...
    ..@@...
    ..@@...
    ..@@...
    ..@@...
    ..@@...
    ..@@...
    .@@@@..
    @@@@@@.
    .......
    .......
    .......
    .......
    .......
    .......
    .......

    left-bearing: 1
    right-bearing: 1


0xce:
'':
    .........
    ....@....
    ...@@@...
    ..@@@@@..
    .@@@.@@@.
    @@.....@@
    .........
    .........
    ..@@@@@@.
    ...@@@@..
    ....@@...
    ....@@...
    ....@@...
    ....@@...
    ....@@...
    ....@@...
    ....@@...
    ....@@...
    ....@@...
    ....@@...
    ....@@...
    ...@@@@..
    ..@@@@@@.
    .........
    .........
    .........
    .........
    .........
    .........
    .........

    left-bearing: 1
    right-bearing: 1


0xcf:
'':
    ..........
    .@@....@@.
    @@@@..@@@@
    @@@@..@@@@
    .@@....@@.
    ..........
    ..........
    ..........
    ..@@@@@@..
    ...@@@@...
    ....@@....
    ....@@....
    ....@@....
    ....@@....
    ....@@....
    ....@@....
    ....@@....
    ....@@....
    ....@@....
    ....@@....
    ....@@....
    ...@@@@...
    ..@@@@@@..
    ..........
    ..........
    ..........
    ..........
    ..........
    ..........
    ..........

    left-bearing: 1
    right-bearing: 1


0xd0:
'':
    ....................
    ..@@@@@@@@@@@.......
    ...@@@......@@@.....
    ....@@........@@....
    ....@@.........@@...
    ....@@..........@@..
    ....@@...........@@.
    ....@@...........@@.
    ....@@............@@
    ....@@............@@
    @@@@@@@@@@........@@
    @@@@@@@@@@........@@
    @@@@@@@@@@........@@
    ....@@............@@
    ....@@............@@
    ....@@............@@
    ....@@...........@@.
    ....@@...........@@.
    ....@@..........@@..
    ....@@.........@@...
    ....@@........@@....
    ...@@@......@@@.....
    ..@@@@@@@@@@@.......
    ....................
    ....................
    ....................
    ....................
    ....................
    ....................
    ....................

    right-bearing: 3


0xd1:
'':
    ...................
    ...................
    ......@@@....@@....
    .....@@.@@@.@@.....
    ....@@....@@@......
    ...................
    ...................
    ...................
    @@@@.........@@@@@@
    .@@@@.........@@@@.
    ..@@@@.........@@..
    ..@.@@@........@@..
    ..@..@@@.......@@..
    ..@...@@@......@@..
    ..@....@@@.....@@..
    ..@.....@@@....@@..
    ..@......@@@...@@..
    ..@.......@@@..@@..
    ..@........@@@.@@..
    ..@.........@@@@@..
    ..@..........@@@@..
    .@@@..........@@@..
    @@@@@..........@@..
    ...................
    ...................
    ...................
    ...................
    ...................
    ...................
    ...................

    left-bearing: 2
    right-bearing: -1


0xd2:
'':
    ....................
    ......@@............
    ......@@@...........
    .......@@@..........
    ........@@@.........
    ..........@@........
    ....................
    ....................
    ......@@@@@@@@......
    ....@@@......@@@....
    ...@@..........@@...
    ..@@............@@..
    .@@..............@@.
    .@@..............@@.
    @@................@@
    @@................@@
    @@................@@
    .@@..............@@.
    .@@..............@@.
    ..@@............@@..
    ...@@..........@@...
    ....@@@......@@@....
    ......@@@@@@@@......
    ....................
    ....................
    ....................
    ....................
    ....................
    ....................
    ....................

    left-bearing: 2
    right-bearing: -1


0xd3:
'':
    ....................
    ............@@......
    ...........@@@......
    ..........@@@.......
    .........@@@........
    ........@@..........
    ....................
    ....................
    ......@@@@@@@@......
    ....@@@......@@@....
    ...@@..........@@...
    ..@@............@@..
    .@@..............@@.
    .@@..............@@.
    @@................@@
    @@................@@
    @@................@@
    .@@..............@@.
    .@@..............@@.
    ..@@............@@..
    ...@@..........@@...
    ....@@@......@@@....
    ......@@@@@@@@......
    ....................
    ....................
    ....................
    ....................
    ....................
    ....................
    ....................

    left-bearing: 2
    right-bearing: -1


0xd4:
'':
    ....................
    ..........@.........
    .........@@@........
    ........@@@@@.......
    .......@@@.@@@......
    ......@@.....@@.....
    ....................
    ....................
    ......@@@@@@@@......
    ....@@@......@@@....
    ...@@..........@@...
    ..@@............@@..
    .@@..............@@.
    .@@..............@@.
    @@................@@
    @@................@@
    @@................@@
    .@@..............@@.
    .@@..............@@.
    ..@@............@@..
    ...@@..........@@...
    ....@@@......@@@....
    ......@@@@@@@@......
    ....................
    ....................
    ....................
    ....................
    ....................
    ....................
    ....................

    left-bearing: 2
    right-bearing: -1


0xd5:
'':
    ....................
    ....................
    .......@@@....@@....
    ......@@.@@@.@@.....
    .....@@....@@@......
    ....................
    ....................
    ....................
    ......@@@@@@@@......
    ....@@@......@@@....
    ...@@..........@@...
    ..@@............@@..
    .@@..............@@.
    .@@..............@@.
    @@................@@
    @@................@@
    @@................@@
    .@@..............@@.
    .@@..............@@.
    ..@@............@@..
    ...@@..........@@...
    ....@@@......@@@....
    ......@@@@@@@@......
    ....................
    ....................
    ....................
    ....................
    ....................
    ....................
    ....................

    left-bearing: 2
    right-bearing: -1


0xd6:
'':
    ....................
    ......@@....@@......
    .....@@@@..@@@@.....
    .....@@@@..@@@@.....
    ......@@....@@......
    ....................
    ....................
    ....................
    ......@@@@@@@@......
    ....@@@......@@@....
    ...@@..........@@...
    ..@@............@@..
    .@@..............@@.
    .@@..............@@.
    @@................@@
    @@................@@
    @@................@@
    .@@..............@@.
    .@@..............@@.
    ..@@............@@..
    ...@@..........@@...
    ....@@@......@@@....
    ......@@@@@@@@......
    ....................
    ....................
    ....................
    ....................
    ....................
    ....................
    ....................

    left-bearing: 2
    right-bearing: -1


0xd7:
'':
    .............
    .............
    .............
    .............
    .............
    .............
    .............
    .............
    .............
    .............
    @@.........@@
    .@@.......@@.
    ..@@.....@@..
    ...@@...@@...
    ....@@.@@....
    .....@@@.....
    ....@@.@@....
    ...@@...@@...
    ..@@.....@@..
    .@@.......@@.
    @@.........@@
    .............
    .............
    .............
    .............
    .............
    .............
    .............
    .............
    .............

    left-bearing: 1


0xd8:
'':
    ................@...
    .......@@@@@@..@....
    .....@@@....@@@@....
    ....@@........@@....
    ...@@.........@@@...
    ..@@.........@..@@..
    .@@.........@....@@.
    .@@.........@....@@.
    @@.........@......@@
    @@.........@......@@
    @@........@.......@@
    @@.......@........@@
    @@.......@........@@
    @@......@.........@@
    @@......@.........@@
    @@.....@..........@@
    .@@...@..........@@.
    .@@...@..........@@.
    ..@@.@..........@@..
    ...@@@.........@@@..
    ....@@........@@....
    ...@.@@@....@@@.....
    ...@...@@@@@@.......
    ....................
    ....................
    ....................
    ....................
    ....................
    ....................
    ....................

    left-bearing: 2
    right-bearing: -1


0xd9:
'':
    ...................
    .....@@............
    .....@@@...........
    ......@@@..........
    .......@@@.........
    .........@@........
    ...................
    ...................
    @@@@@@........@@@@@
    .@@@@..........@@@.
    ..@@............@..
    ..@@............@..
    ..@@............@..
    ..@@............@..
    ..@@............@..
    ..@@............@..
    ..@@............@..
    ..@@...........@@..
    ..@@...........@...
    ...@@.........@@...
    ...@@@.......@@....
    ....@@@@@@@@@@.....
    ......@@@@@@.......
    ...................
    ...................
    ...................
    ...................
    ...................
    ...................
    ...................

    left-bearing: 2
    right-bearing: -1


0xda:
'':
    ...................
    ............@@.....
    ...........@@@.....
    ..........@@@......
    .........@@@.......
    ........@@.........
    ...................
    ...................
    @@@@@@........@@@@@
    .@@@@..........@@@.
    ..@@............@..
    ..@@............@..
    ..@@............@..
    ..@@............@..
    ..@@............@..
    ..@@............@..
    ..@@............@..
    ..@@...........@@..
    ..@@...........@...
    ...@@.........@@...
    ...@@@.......@@....
    ....@@@@@@@@@@.....
    ......@@@@@@.......
    ...................
    ...................
    ...................
    ...................
    ...................
    ...................
    ...................

    left-bearing: 2


0xdb:
'':
    ...................
    .........@.........
    ........@@@........
    .......@@@@@.......
    ......@@@.@@@......
    .....@@.....@@.....
    ...................
    ...................
    @@@@@@........@@@@@
    .@@@@..........@@@.
    ..@@............@..
    ..@@............@..
    ..@@............@..
    ..@@............@..
    ..@@............@..
    ..@@............@..
    ..@@............@..
    ..@@...........@@..
    ..@@...........@...
    ...@@.........@@...
    ...@@@.......@@....
    ....@@@@@@@@@@.....
    ......@@@@@@.......
    ...................
    ...................
    ...................
    ...................
    ...................
    ...................
    ...................

    left-bearing: 2


0xdc:
'':
    ...................
    .....@@.....@@.....
    ....@@@@...@@@@....
    ....@@@@...@@@@....
    .....@@.....@@.....
    ...................
    ...................
    ...................
    @@@@@@........@@@@@
    .@@@@..........@@@.
    ..@@............@..
    ..@@............@..
    ..@@............@..
    ..@@............@..
    ..@@............@..
    ..@@............@..
    ..@@............@..
    ..@@...........@@..
    ..@@...........@...
    ...@@.........@@...
    ...@@@.......@@....
    ....@@@@@@@@@@.....
    ......@@@@@@.......
    ...................
    ...................
    ...................
    ...................
    ...................
    ...................
    ...................

    left-bearing: 2


0xdd:
'':
    ..................
    ...........@@.....
    ..........@@@.....
    .........@@@......
    ........@@@.......
    .......@@.........
    ..................
    ..................
    @@@@@........@@@@@
    .@@@..........@@@.
    ..@@@.........@@..
    ...@@@.......@@...
    ....@@@.....@@....
    .....@@@...@@.....
    ......@@@.@@......
    .......@@@@.......
    ........@@........
    ........@@........
    ........@@........
    ........@@........
    ........@@........
    .......@@@@.......
    ......@@@@@@......
    ..................
    ..................
    ..................
    ..................
    ..................
    ..................
    ..................



0xde:
'':
    ................
    .@@@@@@.........
    ..@@@@..........
    ...@@...........
    ...@@...........
    ...@@...........
    ...@@@@@@@@@....
    ...@@.....@@@@..
    ...@@.......@@@.
    ...@@........@@.
    ...@@.........@@
    ...@@.........@@
    ...@@.........@@
    ...@@.........@@
    ...@@........@@.
    ...@@.......@@@.
    ...@@.....@@@@..
    ...@@@@@@@@@....
    ...@@...........
    ...@@...........
    ...@@...........
    ..@@@@..........
    .@@@@@@.........
    ................
    ................
    ................
    ................
    ................
    ................
    ................

    left-bearing: 1
    right-bearing: 1


0xdf:
'':
    .............
    .....@@@.....
    ...@@@@@@@...
    ..@@....@@...
    .@@......@@..
    .@@......@@..
    .@@......@@..
    .@@......@@..
    .@@......@@..
    .@@.....@@...
    .@@..@@@.....
    .@@...@@@....
    .@@.....@@...
    .@@......@@..
    .@@.......@@.
    .@@.......@@.
    .@@........@@
    .@@........@@
    .@@........@@
    .@@..@@....@@
    .@@..@@....@@
    .@@...@@..@@.
    @@@....@@@...
    .............
    .............
    .............
    .............
    .............
    .............
    .............

    left-bearing: 1


0xe0:
'':
    ...........
    ...@@......
    ...@@@.....
    ....@@@....
    .....@@@...
    .......@@..
    ...........
    ...........
    ..@@@@@@...
    .@@@...@@..
    .@@.....@@.
    ........@@.
    ........@@.
    .....@@@@@.
    ...@@@..@@.
    ..@@....@@.
    .@@.....@@.
    @@......@@.
    @@......@@.
    @@......@@.
    @@@....@@@.
    .@@@@@@.@@.
    ..@@@....@@
    ...........
    ...........
    ...........
    ...........
    ...........
    ...........
    ...........

    left-bearing: 1
    right-bearing: 1


0xe1:
'':
    ...........
    .......@@..
    ......@@@..
    .....@@@...
    ....@@@....
    ...@@......
    ...........
    ...........
    ..@@@@@@...
    .@@@...@@..
    .@@.....@@.
    ........@@.
    ........@@.
    .....@@@@@.
    ...@@@..@@.
    ..@@....@@.
    .@@.....@@.
    @@......@@.
    @@......@@.
    @@......@@.
    @@@....@@@.
    .@@@@@@.@@.
    ..@@@....@@
    ...........
    ...........
    ...........
    ...........
    ...........
    ...........
    ...........

    left-bearing: 1
    right-bearing: 1


0xe2:
'':
    ...........
    .....@.....
    ....@@@....
    ...@@@@@...
    ..@@@.@@@..
    .@@.....@@.
    ...........
    ...........
    ..@@@@@@...
    .@@@...@@..
    .@@.....@@.
    ........@@.
    ........@@.
    .....@@@@@.
    ...@@@..@@.
    ..@@....@@.
    .@@.....@@.
    @@......@@.
    @@......@@.
    @@......@@.
    @@@....@@@.
    .@@@@@@.@@.
    ..@@@....@@
    ...........
    ...........
    ...........
    ...........
    ...........
    ...........
    ...........

    left-bearing: 1
    right-bearing: 1


0xe3:
'':
    ...........
    ...........
    ...........
    ..@@@....@@
    .@@.@@@.@@.
    @@....@@@..
    ...........
    ...........
    ..@@@@@@...
    .@@@...@@..
    .@@.....@@.
    ........@@.
    ........@@.
    .....@@@@@.
    ...@@@..@@.
    ..@@....@@.
    .@@.....@@.
    @@......@@.
    @@......@@.
    @@......@@.
    @@@....@@@.
    .@@@@@@.@@.
    ..@@@....@@
    ...........
    ...........
    ...........
    ...........
    ...........
    ...........
    ...........

    left-bearing: 1
    right-bearing: 1


0xe4:
'':
    ...........
    ...........
    ...@...@...
    ..@@@.@@@..
    ...@...@...
    ...........
    ...........
    ...........
    ..@@@@@@...
    .@@@...@@..
    .@@.....@@.
    ........@@.
    ........@@.
    .....@@@@@.
    ...@@@..@@.
    ..@@....@@.
    .@@.....@@.
    @@......@@.
    @@......@@.
    @@......@@.
    @@@....@@@.
    .@@@@@@.@@.
    ..@@@....@@
    ...........
    ...........
    ...........
    ...........
    ...........
    ...........
    ...........

    left-bearing: 1
    right-bearing: 1


0xe5:
'':
    ...........
    ....@@@....
    ...@@.@@...
    ...@...@...
    ...@@.@@...
    ....@@@....
    ...........
    ...........
    ..@@@@@@...
    .@@@...@@..
    .@@.....@@.
    ........@@.
    ........@@.
    .....@@@@@.
    ...@@@..@@.
    ..@@....@@.
    .@@.....@@.
    @@......@@.
    @@......@@.
    @@......@@.
    @@@....@@@.
    .@@@@@@.@@.
    ..@@@....@@
    ...........
    ...........
    ...........
    ...........
    ...........
    ...........
    ...........

    left-bearing: 1
    right-bearing: 1


0xe6:
'':
    ..................
    ..................
    ..................
    ..................
    ..................
    ..................
    ..................
    ..................
    ..@@@@@@...@@@@...
    .@@@...@@.@@...@@.
    .@@.....@@@.....@@
    ........@@......@@
    ........@@......@@
    .....@@@@@@@@@@@@@
    ...@@@..@@........
    ..@@....@@........
    .@@.....@@........
    @@......@@........
    @@......@@........
    @@......@@@......@
    @@@....@.@@@....@.
    .@@@@@@...@@@.@@..
    ..@@@.......@@@...
    ..................
    ..................
    ..................
    ..................
    ..................
    ..................
    ..................

    left-bearing: 1


0xe7:
'':
    ...........
    ...........
    ...........
    ...........
    ...........
    ...........
    ...........
    ...........
    ....@@@@@@.
    ..@@....@@@
    .@@......@@
    .@.........
    @@.........
    @@.........
    @@.........
    @@.........
    @@.........
    @@.........
    @@.........
    .@@.......@
    .@@@.....@.
    ..@@@@.@@..
    ....@@@@...
    .....@@....
    ....@@.....
    ....@@@@...
    .......@@..
    .......@@..
    .@@...@@...
    ...@@@@....

    left-bearing: 1
    right-bearing: 1


0xe8:
'':
    ...........
    ...@@......
    ...@@@.....
    ....@@@....
    .....@@@...
    .......@@..
    ...........
    ...........
    ....@@@@@..
    ..@@....@@.
    .@@......@@
    .@.......@@
    @@.......@@
    @@@@@@@@@@@
    @@.........
    @@.........
    @@.........
    @@.........
    @@.........
    .@@.......@
    .@@@.....@.
    ..@@@@.@@..
    ....@@@@...
    ...........
    ...........
    ...........
    ...........
    ...........
    ...........
    ...........

    left-bearing: 1
    right-bearing: 1


0xe9:
'':
    ...........
    .......@@..
    ......@@@..
    .....@@@...
    ....@@@....
    ...@@......
    ...........
    ...........
    ....@@@@@..
    ..@@....@@.
    .@@......@@
    .@.......@@
    @@.......@@
    @@@@@@@@@@@
    @@.........
    @@.........
    @@.........
    @@.........
    @@.........
    .@@.......@
    .@@@.....@.
    ..@@@@.@@..
    ....@@@@...
    ...........
    ...........
    ...........
    ...........
    ...........
    ...........
    ...........

    left-bearing: 1
    right-bearing: 1


0xea:
'':
    ...........
    .....@.....
    ....@@@....
    ...@@@@@...
    ..@@@.@@@..
    .@@.....@@.
    ...........
    ...........
    ....@@@@@..
    ..@@....@@.
    .@@......@@
    .@.......@@
    @@.......@@
    @@@@@@@@@@@
    @@.........
    @@.........
    @@.........
    @@.........
    @@.........
    .@@.......@
    .@@@.....@.
    ..@@@@.@@..
    ....@@@@...
    ...........
    ...........
    ...........
    ...........
    ...........
    ...........
    ...........

    left-bearing: 1
    right-bearing: 1


0xeb:
'':
    ...........
    ...........
    ...@...@...
    ..@@@.@@@..
    ...@...@...
    ...........
    ...........
    ...........
    ....@@@@@..
    ..@@....@@.
    .@@......@@
    .@.......@@
    @@.......@@
    @@@@@@@@@@@
    @@.........
    @@.........
    @@.........
    @@.........
    @@.........
    .@@.......@
    .@@@.....@.
    ..@@@@.@@..
    ....@@@@...
    ...........
    ...........
    ...........
    ...........
    ...........
    ...........
    ...........

    left-bearing: 1
    right-bearing: 1


0xec:
'':
    ......
    @@....
    @@@...
    .@@@..
    ..@@@.
    ....@@
    ......
    ......
    .@@@..
    ..@@..
    ..@@..
    ..@@..
    ..@@..
    ..@@..
    ..@@..
    ..@@..
    ..@@..
    ..@@..
    ..@@..
    ..@@..
    ..@@..
    ..@@..
    .@@@@.
    ......
    ......
    ......
    ......
    ......
    ......
    ......

    left-bearing: 2
    right-bearing: -2


0xed:
'':
    ......
    ....@@
    ...@@@
    ..@@@.
    .@@@..
    @@....
    ......
    ......
    .@@@..
    ..@@..
    ..@@..
    ..@@..
    ..@@..
    ..@@..
    ..@@..
    ..@@..
    ..@@..
    ..@@..
    ..@@..
    ..@@..
    ..@@..
    ..@@..
    .@@@@.
    ......
    ......
    ......
    ......
    ......
    ......
    ......

    left-bearing: 2
    right-bearing: -2


0xee:
'':
    .......
    ...@...
    ..@@@..
    .@@@@@.
    @@@.@@@
    @.....@
    .......
    .......
    .@@@...
    ..@@...
    ..@@...
    ..@@...
    ..@@...
    ..@@...
    ..@@...
    ..@@...
    ..@@...
    ..@@...
    ..@@...
    ..@@...
    ..@@...
    ..@@...
    .@@@@..
    .......
    .......
    .......
    .......
    .......
    .......
    .......

    right-bearing: 2


0xef:
'':
    .......
    .......
    .@...@.
    @@@.@@@
    .@...@.
    .......
    .......
    .......
    .@@@...
    ..@@...
    ..@@...
    ..@@...
    ..@@...
    ..@@...
    ..@@...
    ..@@...
    ..@@...
    ..@@...
    ..@@...
    ..@@...
    ..@@...
    ..@@...
    .@@@@..
    .......
    .......
    .......
    .......
    .......
    .......
    .......

    right-bearing: 2


0xf0:
'':
    .............
    @@...........
    @@@..........
    ..@@@...@@@..
    ....@@@@@....
    ...@@@@......
    .@@@..@@.....
    @@....@@@....
    ....@@.@@@...
    ..@@.....@@..
    .@@.......@@.
    .@@.......@@.
    @@.........@@
    @@.........@@
    @@.........@@
    @@.........@@
    @@.........@@
    @@.........@@
    @@.........@@
    .@@.......@@.
    .@@.......@@.
    ..@@.....@@..
    ....@@@@@....
    .............
    .............
    .............
    .............
    .............
    .............
    .............

    left-bearing: 1


0xf1:
'':
    ............
    ............
    ............
    ..@@@....@@.
    .@@.@@@.@@..
    @@....@@@...
    ............
    ............
    @@@..@@@@...
    .@@.@@@@@@..
    .@@@....@@@.
    .@@......@@.
    .@@......@@.
    .@@......@@.
    .@@......@@.
    .@@......@@.
    .@@......@@.
    .@@......@@.
    .@@......@@.
    .@@......@@.
    .@@......@@.
    .@@......@@.
    @@@@....@@@@
    ............
    ............
    ............
    ............
    ............
    ............
    ............

    left-bearing: 1
    right-bearing: 2


0xf2:
'':
    .............
    ...@@........
    ...@@@.......
    ....@@@......
    .....@@@.....
    .......@@....
    .............
    .............
    ....@@@@@....
    ..@@.....@@..
    .@@.......@@.
    .@@.......@@.
    @@.........@@
    @@.........@@
    @@.........@@
    @@.........@@
    @@.........@@
    @@.........@@
    @@.........@@
    .@@.......@@.
    .@@.......@@.
    ..@@.....@@..
    ....@@@@@....
    .............
    .............
    .............
    .............
    .............
    .............
    .............

    left-bearing: 1


0xf3:
'':
    .............
    ........@@...
    .......@@@...
    ......@@@....
    .....@@@.....
    ....@@.......
    .............
    .............
    ....@@@@@....
    ..@@.....@@..
    .@@.......@@.
    .@@.......@@.
    @@.........@@
    @@.........@@
    @@.........@@
    @@.........@@
    @@.........@@
    @@.........@@
    @@.........@@
    .@@.......@@.
    .@@.......@@.
    ..@@.....@@..
    ....@@@@@....
    .............
    .............
    .............
    .............
    .............
    .............
    .............

    left-bearing: 1


0xf4:
'':
    .............
    ......@......
    .....@@@.....
    ....@@@@@....
    ...@@@.@@@...
    ..@@.....@@..
    .............
    .............
    ....@@@@@....
    ..@@.....@@..
    .@@.......@@.
    .@@.......@@.
    @@.........@@
    @@.........@@
    @@.........@@
    @@.........@@
    @@.........@@
    @@.........@@
    @@.........@@
    .@@.......@@.
    .@@.......@@.
    ..@@.....@@..
    ....@@@@@....
    .............
    .............
    .............
    .............
    .............
    .............
    .............

    left-bearing: 1


0xf5:
'':
    .............
    .............
    .............
    ...@@@....@@.
    ..@@.@@@.@@..
    .@@....@@@...
    .............
    .............
    ....@@@@@....
    ..@@.....@@..
    .@@.......@@.
    .@@.......@@.
    @@.........@@
    @@.........@@
    @@.........@@
    @@.........@@
    @@.........@@
    @@.........@@
    @@.........@@
    .@@.......@@.
    .@@.......@@.
    ..@@.....@@..
    ....@@@@@....
    .............
    .............
    .............
    .............
    .............
    .............
    .............

    left-bearing: 1


0xf6:
'':
    .............
    .............
    ....@...@....
    ...@@@.@@@...
    ....@...@....
    .............
    .............
    .............
    ....@@@@@....
    ..@@.....@@..
    .@@.......@@.
    .@@.......@@.
    @@.........@@
    @@.........@@
    @@.........@@
    @@.........@@
    @@.........@@
    @@.........@@
    @@.........@@
    .@@.......@@.
    .@@.......@@.
    ..@@.....@@..
    ....@@@@@....
    .............
    .............
    .............
    .............
    .............
    .............
    .............

    left-bearing: 1


0xf7:
'':
    .............
    .............
    .............
    .............
    .............
    .............
    .............
    .............
    ......@......
    .....@@@.....
    .....@@@.....
    ......@......
    .............
    .............
    @@@@@@@@@@@@@
    .............
    .............
    ......@......
    .....@@@.....
    .....@@@.....
    ......@......
    .............
    .............
    .............
    .............
    .............
    .............
    .............
    .............
    .............

    left-bearing: 1


0xf8:
'':
    .............
    .............
    .............
    .............
    .............
    .............
    .............
    ...........@@
    ....@@@@@.@@.
    ..@@.....@@..
    .@@......@@@.
    .@@.....@@.@.
    @@......@@.@@
    @@.....@@..@@
    @@....@@...@@
    @@....@....@@
    @@...@@....@@
    @@..@@.....@@
    @@.@@......@@
    .@.@@.....@@.
    .@@@......@@.
    ..@@.....@@..
    .@@.@@@@@....
    @@...........
    .............
    .............
    .............
    .............
    .............
    .............

    left-bearing: 1


0xf9:
'':
    ............
    ..@@........
    ..@@@.......
    ...@@@......
    ....@@@.....
    ......@@....
    ............
    ............
    @@@.....@@@.
    .@@......@@.
    .@@......@@.
    .@@......@@.
    .@@......@@.
    .@@......@@.
    .@@......@@.
    .@@......@@.
    .@@......@@.
    .@@......@@.
    .@@......@@.
    .@@......@@.
    ..@@....@@@.
    ..@@@..@.@@.
    ....@@@..@@@
    ............
    ............
    ............
    ............
    ............
    ............
    ............

    left-bearing: 1


0xfa:
'':
    ............
    .......@@...
    ......@@@...
    .....@@@....
    ....@@@.....
    ...@@.......
    ............
    ............
    @@@.....@@@.
    .@@......@@.
    .@@......@@.
    .@@......@@.
    .@@......@@.
    .@@......@@.
    .@@......@@.
    .@@......@@.
    .@@......@@.
    .@@......@@.
    .@@......@@.
    .@@......@@.
    ..@@....@@@.
    ..@@@..@.@@.
    ....@@@..@@@
    ............
    ............
    ............
    ............
    ............
    ............
    ............

    left-bearing: 1


0xfb:
'':
    ............
    .....@......
    ....@@@.....
    ...@@@@@....
    ..@@@.@@@...
    .@@.....@@..
    ............
    ............
    @@@.....@@@.
    .@@......@@.
    .@@......@@.
    .@@......@@.
    .@@......@@.
    .@@......@@.
    .@@......@@.
    .@@......@@.
    .@@......@@.
    .@@......@@.
    .@@......@@.
    .@@......@@.
    ..@@....@@@.
    ..@@@..@.@@.
    ....@@@..@@@
    ............
    ............
    ............
    ............
    ............
    ............
    ............

    left-bearing: 1


0xfc:
'':
    ............
    ............
    ...@....@...
    ..@@@..@@@..
    ...@....@...
    ............
    ............
    ............
    @@@.....@@@.
    .@@......@@.
    .@@......@@.
    .@@......@@.
    .@@......@@.
    .@@......@@.
    .@@......@@.
    .@@......@@.
    .@@......@@.
    .@@......@@.
    .@@......@@.
    .@@......@@.
    ..@@....@@@.
    ..@@@..@.@@.
    ....@@@..@@@
    ............
    ............
    ............
    ............
    ............
    ............
    ............

    left-bearing: 1


0xfd:
'':
    ..............
    .........@@...
    ........@@@...
    .......@@@....
    ......@@@.....
    .....@@.......
    ..............
    ..............
    @@@@@.....@@@@
    .@@@.......@@.
    ..@@.......@..
    ..@@.......@..
    ...@@.....@...
    ...@@.....@...
    ...@@.....@...
    ....@@...@....
    ....@@...@....
    ....@@...@....
    .....@@.@.....
    .....@@.@.....
    .....@@@@.....
    ......@@......
    ......@@......
    .....@@.......
    .....@@.......
    ....@@........
    @@@@@.........
    @@@@..........
    .@@...........
    ..............



0xfe:
'':
    ............
    @@@.........
    .@@.........
    .@@.........
    .@@.........
    .@@.........
    .@@.........
    .@@.........
    .@@..@@@....
    .@@.@.@@@@..
    .@@@....@@@.
    .@@......@@.
    .@@......@@@
    .@@.......@@
    .@@.......@@
    .@@.......@@
    .@@.......@@
    .@@.......@@
    .@@......@@@
    .@@......@@.
    .@@@....@@@.
    .@@.@.@@@@..
    .@@..@@.....
    .@@.........
    .@@.........
    .@@.........
    .@@.........
    .@@.........
    @@@@........
    ............

    left-bearing: 1


0xff:
'':
    ..............
    ..............
    ....@....@....
    ...@@@..@@@...
    ....@....@....
    ..............
    ..............
    ..............
    @@@@@.....@@@@
    .@@@.......@@.
    ..@@.......@..
    ..@@.......@..
    ...@@.....@...
    ...@@.....@...
    ...@@.....@...
    ....@@...@....
    ....@@...@....
    ....@@...@....
    .....@@.@.....
    .....@@.@.....
    .....@@@@.....
    ......@@......
    ......@@......
    .....@@.......
    .....@@.......
    ....@@........
    @@@@@.........
    @@@@..........
    .@@...........
    ..............



"default":
    ....................
    @@@@@@@@@@@@@@@@@@@@
    @@@@@@@@@@@@@@@@@@@@
    @@@...............@@
    @@@...............@@
    @@@...............@@
    @@@...............@@
    @@@...............@@
    @@@...............@@
    @@@...............@@
    @@@...............@@
    @@@...............@@
    @@@...............@@
    @@@...............@@
    @@@...............@@
    @@@...............@@
    @@@...............@@
    @@@...............@@
    @@@...............@@
    @@@...............@@
    @@@...............@@
    @@@...............@@
    @@@...............@@
    @@@...............@@
    @@@...............@@
    @@@...............@@
    @@@@@@@@@@@@@@@@@@@@
    @@@@@@@@@@@@@@@@@@@@
    ....................
    ....................

    left-bearing: 2
    right-bearing: -1
